<svg width="22" height="27" viewBox="0 0 22 27" fill="none" xmlns="http://www.w3.org/2000/svg">
<path fill-rule="evenodd" clip-rule="evenodd" d="M0.781076 0.137439C0.505441 0.255004 0.42066 0.348315 0.285736 0.682544L0.179199 0.946569L0.179453 12.2416C0.179579 19.4089 0.194702 23.6033 0.220808 23.7192C0.277667 23.9714 0.500076 24.2886 0.696083 24.3969C0.786187 24.4467 2.93884 25.0007 5.47975 25.6279C9.94724 26.7306 10.1064 26.766 10.3036 26.7015C10.5552 26.6193 10.7696 26.4129 10.8848 26.1418C10.9583 25.9687 10.9745 25.8216 10.986 25.2187L10.9998 24.5016L13.3516 24.5004C15.5351 24.4994 15.7156 24.4925 15.8728 24.4043C16.0858 24.2848 16.298 23.99 16.3557 23.7336C16.417 23.4608 16.4166 16.6733 16.3552 16.4003C16.3305 16.2907 16.2439 16.1102 16.1626 15.9992C15.7511 15.4366 15.0137 15.5441 14.7108 16.2107L14.6051 16.4431L14.5929 19.377L14.5807 22.3109H12.7874H10.9941L10.9832 13.2484C10.9723 4.19727 10.9721 4.18569 10.8848 3.98009C10.7139 3.57795 10.6304 3.53189 8.90236 2.88701L7.29713 2.28792L10.9406 2.28505L14.584 2.28218V5.04401C14.584 6.88337 14.5998 7.8967 14.6313 8.07784C14.6992 8.46877 14.9872 8.82015 15.3071 8.9021C15.726 9.00949 16.1036 8.78693 16.2912 8.32194L16.4005 8.05124V4.53385C16.4005 1.90179 16.3874 0.962373 16.3485 0.801726C16.2815 0.524609 16.0075 0.186312 15.7831 0.103537C15.6483 0.0538299 13.9656 0.0397472 8.30606 0.0411033C1.36356 0.0427202 0.991995 0.0474666 0.781076 0.137439ZM17.9448 7.87604C17.8398 7.91031 17.7047 8.02109 17.5794 8.17579C17.3202 8.49594 17.2499 8.83512 17.3536 9.26616C17.414 9.51756 17.489 9.63273 18.0566 10.3464L18.6919 11.1453L16.0782 11.1602L13.4646 11.1751L13.2764 11.3055C12.7365 11.6796 12.6494 12.59 13.105 13.0982C13.195 13.1985 13.3412 13.3055 13.4299 13.336C13.5355 13.3722 14.481 13.3914 16.1654 13.3916L18.7395 13.3919L18.061 14.2394C17.4086 15.0543 17.3806 15.0981 17.3342 15.374C17.1808 16.2864 17.9199 17.0053 18.601 16.6062C18.6846 16.5572 19.3948 15.7177 20.2289 14.6817C21.7971 12.7342 21.8076 12.718 21.8076 12.2355C21.8076 11.8362 21.6577 11.6122 20.151 9.75879C18.7768 8.06845 18.691 7.97305 18.4732 7.89414C18.2157 7.80072 18.1794 7.79952 17.9448 7.87604Z" fill="#D9D9D9"/>
</svg>
