<svg width="25" height="25" viewBox="0 0 25 25" fill="none" xmlns="http://www.w3.org/2000/svg">
<path fill-rule="evenodd" clip-rule="evenodd" d="M11.3654 0.0284407C9.00865 0.263756 6.8614 1.09728 4.96308 2.51382C4.33174 2.98489 3.00614 4.31031 2.53501 4.94157C-0.590442 9.12905 -0.846713 14.6831 1.88226 19.0888C2.55466 20.1744 3.65733 21.4194 4.6678 22.2339C7.96661 24.8929 12.4018 25.6994 16.4253 24.3719C18.3114 23.7496 19.7898 22.8479 21.2339 21.4393C23.3176 19.4067 24.555 16.9258 24.9406 14.0071C25.0198 13.4082 25.0198 11.5754 24.9406 10.9765C24.5607 8.10102 23.3338 5.61393 21.3065 3.60911C19.3126 1.63733 16.8583 0.437285 14.0787 0.074927C13.5177 0.00180029 11.9085 -0.0257689 11.3654 0.0284407ZM13.5691 1.49655C15.5931 1.69349 17.5355 2.45497 19.2037 3.7054C19.8085 4.15873 20.8479 5.19746 21.2947 5.79504C24.3786 9.91912 24.3084 15.4041 21.1206 19.4032C20.7939 19.813 20.101 20.5572 20.0462 20.5572C20.0281 20.5572 19.9622 20.3978 19.8996 20.2029C19.2861 18.2926 17.7714 16.5849 15.8763 15.6669L15.4984 15.4838L15.7786 15.2731C16.9044 14.4259 17.6911 13.1034 17.8939 11.7166C17.9833 11.1059 17.9314 10.1336 17.7784 9.54884C17.2483 7.52315 15.5681 5.9586 13.5073 5.57185C12.8575 5.44984 11.7192 5.49554 11.1018 5.66834C9.21242 6.19719 7.74246 7.67414 7.25279 9.5356C7.07054 10.2285 7.03676 11.2903 7.17594 11.9541C7.44922 13.2577 8.10471 14.3457 9.09152 15.1336L9.52955 15.4833L9.10306 15.691C7.79183 16.3296 6.62771 17.3847 5.86423 18.6264C5.59217 19.069 5.2722 19.7547 5.12871 20.2029C5.06628 20.3978 4.9995 20.5572 4.98034 20.5572C4.92289 20.5572 4.16489 19.7303 3.83783 19.3108C2.81793 18.0027 2.08593 16.4733 1.73868 14.9253C0.911688 11.2385 2.00981 7.4205 4.6678 4.7413C5.61691 3.78459 6.44326 3.18882 7.64996 2.5912C9.48242 1.68371 11.5544 1.30053 13.5691 1.49655ZM13.4921 7.07114C14.819 7.4027 15.899 8.43395 16.3276 9.77888C16.4932 10.2983 16.5191 11.2491 16.3832 11.8177C16.1907 12.623 15.834 13.2342 15.2165 13.8167C14.4555 14.5344 13.5653 14.887 12.5143 14.887C11.4627 14.887 10.5739 14.5348 9.81046 13.8155C8.95497 13.0094 8.55439 12.0743 8.55439 10.8834C8.55439 8.90327 10.0296 7.24169 12.0284 6.97044C12.4366 6.91506 13.0311 6.95597 13.4921 7.07114ZM13.788 16.5006C16.0758 16.9668 17.9765 18.7159 18.5946 20.9239C18.7873 21.6122 18.7944 21.5742 18.4297 21.8172C17.8874 22.1786 16.7155 22.7324 15.9888 22.9706C13.6906 23.7241 11.3092 23.7251 9.04326 22.9736C8.33952 22.7401 7.12246 22.164 6.59887 21.8164C6.23426 21.5743 6.24125 21.6123 6.43402 20.9239C7.10285 18.5346 9.24947 16.7181 11.7734 16.4057C12.2982 16.3407 13.2155 16.3839 13.788 16.5006Z" fill="white"/>
</svg>
