<svg width="360" height="52" viewBox="0 0 360 52" fill="none" xmlns="http://www.w3.org/2000/svg">
<path d="M345.63 50.0052H344.394V28.8877H345.653L352.348 40.5023L358.787 28.8877H360V50.0052H358.763V31.4218L352.395 42.8253H352.138L345.63 31.5123V50.0052Z" fill="white" fill-opacity="0.3"/>
<path d="M327.501 47.1393C325.946 45.0275 325.168 42.4633 325.168 39.4465C325.168 36.4297 325.961 33.8755 327.547 31.7838C329.134 29.6721 331.078 28.6162 333.379 28.6162C335.759 28.6162 337.718 29.662 339.258 31.7537C340.813 33.8453 341.59 36.4096 341.59 39.4465C341.59 42.4834 340.797 45.0476 339.211 47.1393C337.64 49.2309 335.696 50.2768 333.379 50.2768C331.031 50.2768 329.071 49.2309 327.501 47.1393ZM328.434 32.8699C327.112 34.7001 326.451 36.8923 326.451 39.4465C326.451 42.0007 327.12 44.203 328.457 46.0532C329.795 47.8834 331.435 48.7985 333.379 48.7985C335.385 48.7985 337.042 47.8935 338.348 46.0834C339.654 44.2532 340.307 42.0409 340.307 39.4465C340.307 36.852 339.646 34.6498 338.325 32.8397C337.003 31.0095 335.354 30.0944 333.379 30.0944C331.404 30.0944 329.756 31.0196 328.434 32.8699Z" fill="white" fill-opacity="0.3"/>
<path d="M316.586 50.0052H310.475V28.8877H316.633C317.255 28.8877 317.815 28.9279 318.313 29.0084C318.826 29.0687 319.347 29.2095 319.876 29.4307C320.42 29.6519 320.871 29.9536 321.229 30.3358C321.586 30.6978 321.882 31.2006 322.115 31.8441C322.348 32.4676 322.465 33.2017 322.465 34.0464C322.465 35.233 322.224 36.2889 321.742 37.214C321.26 38.1191 320.591 38.7325 319.736 39.0543C320.809 39.2152 321.633 39.7481 322.208 40.6532C322.784 41.5582 323.071 42.7146 323.071 44.1225C323.071 48.0443 320.91 50.0052 316.586 50.0052ZM317.006 39.9593H311.711V48.4968H316.773C317.457 48.4968 318.064 48.4465 318.593 48.346C319.137 48.2253 319.666 48.0141 320.179 47.7125C320.708 47.4108 321.112 46.9482 321.392 46.3247C321.687 45.7013 321.835 44.937 321.835 44.032C321.835 41.3169 320.225 39.9593 317.006 39.9593ZM316.726 30.3961H311.711V38.4509H317.076C318.212 38.4509 319.183 38.109 319.992 37.4252C320.816 36.7414 321.229 35.7056 321.229 34.3179C321.229 33.6341 321.135 33.0509 320.949 32.5682C320.777 32.0654 320.552 31.6832 320.272 31.4218C319.992 31.1402 319.642 30.919 319.222 30.7581C318.802 30.5972 318.406 30.4966 318.033 30.4564C317.659 30.4162 317.224 30.3961 316.726 30.3961Z" fill="white" fill-opacity="0.3"/>
<path d="M301.323 30.3961H295.375V28.8877H308.508V30.3961H302.56V50.0052H301.323V30.3961Z" fill="white" fill-opacity="0.3"/>
<path d="M294.032 45.8421L294.708 46.8979C294.117 47.9438 293.246 48.7684 292.096 49.3717C290.945 49.9751 289.817 50.2768 288.713 50.2768C286.147 50.2768 284.094 49.2812 282.555 47.2901C281.031 45.299 280.269 42.6845 280.269 39.4465C280.269 36.2889 281.023 33.6945 282.531 31.6632C284.055 29.6319 286.015 28.6162 288.41 28.6162C289.576 28.6162 290.704 28.8877 291.792 29.4307C292.881 29.9738 293.775 30.7782 294.475 31.8442L293.752 32.9001C292.943 31.9146 292.119 31.2106 291.279 30.7883C290.439 30.3458 289.452 30.1246 288.316 30.1246C286.217 30.1246 284.561 31.0095 283.348 32.7794C282.15 34.5291 281.552 36.7515 281.552 39.4465C281.552 42.2621 282.213 44.5247 283.534 46.2343C284.872 47.9237 286.614 48.7684 288.76 48.7684C290.906 48.7684 292.663 47.7929 294.032 45.8421Z" fill="white" fill-opacity="0.3"/>
<path d="M263.531 51.2031H262.364V48.527H264.067C265.731 45.8521 266.563 40.7135 266.563 33.1112V28.8877H277.037V48.527H279.207V51.2031H278.04V50.0052H263.531V51.2031ZM275.801 30.3659H267.753V34.2274C267.753 36.5403 267.558 39.2051 267.17 42.2219C266.796 45.2186 266.221 47.3203 265.443 48.527H275.801V30.3659Z" fill="white" fill-opacity="0.3"/>
<path d="M261.085 50.0052H249.398V28.8877H260.852V30.3961H250.635V38.5112H260.176V40.0196H250.635V48.4968H261.085V50.0052Z" fill="white" fill-opacity="0.3"/>
<path d="M235.487 41.5582V50.0052H234.251V28.8877H240.036C244.406 28.8877 246.591 30.9793 246.591 35.1626C246.591 36.3291 246.397 37.3448 246.008 38.2096C245.635 39.0744 245.121 39.7481 244.468 40.2308C243.815 40.6934 243.115 41.0353 242.369 41.2565C241.638 41.4576 240.853 41.5582 240.013 41.5582H235.487ZM240.153 30.3659H235.487V40.0498L239.966 40.08C240.93 40.08 241.786 39.9493 242.532 39.6878C243.279 39.4263 243.924 38.9135 244.468 38.1492C245.028 37.3649 245.308 36.3593 245.308 35.1324C245.308 31.9548 243.59 30.3659 240.153 30.3659Z" fill="white" fill-opacity="0.3"/>
<path d="M231.134 45.8421L231.811 46.8979C231.22 47.9438 230.349 48.7684 229.198 49.3717C228.047 49.9751 226.92 50.2768 225.816 50.2768C223.25 50.2768 221.197 49.2812 219.657 47.2901C218.133 45.299 217.371 42.6845 217.371 39.4465C217.371 36.2889 218.125 33.6945 219.634 31.6632C221.158 29.6319 223.117 28.6162 225.512 28.6162C226.679 28.6162 227.806 28.8877 228.895 29.4307C229.983 29.9738 230.878 30.7782 231.577 31.8442L230.854 32.9001C230.046 31.9146 229.221 31.2106 228.382 30.7883C227.542 30.3458 226.554 30.1246 225.419 30.1246C223.32 30.1246 221.663 31.0095 220.45 32.7794C219.253 34.5291 218.654 36.7515 218.654 39.4465C218.654 42.2621 219.315 44.5247 220.637 46.2343C221.974 47.9237 223.716 48.7684 225.862 48.7684C228.008 48.7684 229.766 47.7929 231.134 45.8421Z" fill="white" fill-opacity="0.3"/>
<path d="M193.207 50.0052H191.971V28.8877H193.23L199.925 40.5023L206.364 28.8877H207.577V50.0052H206.34V31.4218L199.972 42.8253H199.715L193.207 31.5123V50.0052Z" fill="white" fill-opacity="0.3"/>
<path d="M188.239 50.0052H187.003V28.8877H188.239V50.0052ZM177.905 38.7224H173.706V48.4968H177.835C178.55 48.4968 179.204 48.4164 179.795 48.2555C180.385 48.0946 180.938 47.8331 181.451 47.4711C181.979 47.089 182.384 46.556 182.664 45.8722C182.959 45.1683 183.107 44.3336 183.107 43.3683C183.107 42.4632 182.951 41.699 182.64 41.0755C182.345 40.4319 181.925 39.9493 181.381 39.6275C180.852 39.3057 180.308 39.0744 179.748 38.9336C179.188 38.7928 178.574 38.7224 177.905 38.7224ZM172.47 28.8877H173.706V37.214H177.975C178.659 37.214 179.289 37.2744 179.864 37.395C180.455 37.4956 181.031 37.6967 181.591 37.9984C182.166 38.28 182.656 38.652 183.06 39.1146C183.465 39.5571 183.783 40.1403 184.017 40.8643C184.266 41.5884 184.39 42.423 184.39 43.3683C184.39 44.575 184.203 45.6309 183.83 46.5359C183.472 47.4208 182.967 48.1046 182.314 48.5873C181.676 49.07 180.976 49.432 180.214 49.6734C179.468 49.8946 178.644 50.0052 177.742 50.0052H172.47V28.8877Z" fill="white" fill-opacity="0.3"/>
<path d="M168.735 50.0052H167.499V39.9895H156.325V50.0052H155.089V28.8877H156.325V38.4811H167.499V28.8877H168.735V50.0052Z" fill="white" fill-opacity="0.3"/>
<path d="M151.354 50.0052H150.117V39.9895H138.944V50.0052H137.707V28.8877H138.944V38.4811H150.117V28.8877H151.354V50.0052Z" fill="white" fill-opacity="0.3"/>
<path d="M134.563 50.0052H122.876V28.8877H134.33V30.3961H124.113V38.5112H133.653V40.0196H124.113V48.4968H134.563V50.0052Z" fill="white" fill-opacity="0.3"/>
<path d="M113.363 50.0052H107.251V28.8877H113.41C114.032 28.8877 114.592 28.9279 115.089 29.0084C115.602 29.0687 116.123 29.2095 116.652 29.4307C117.196 29.6519 117.647 29.9536 118.005 30.3358C118.363 30.6978 118.658 31.2006 118.892 31.8441C119.125 32.4676 119.241 33.2017 119.241 34.0464C119.241 35.233 119 36.2889 118.518 37.214C118.036 38.1191 117.368 38.7325 116.512 39.0543C117.585 39.2152 118.409 39.7481 118.985 40.6532C119.56 41.5582 119.848 42.7146 119.848 44.1225C119.848 48.0443 117.686 50.0052 113.363 50.0052ZM113.783 39.9593H108.488V48.4968H113.55C114.234 48.4968 114.84 48.4465 115.369 48.346C115.913 48.2253 116.442 48.0141 116.955 47.7125C117.484 47.4108 117.888 46.9482 118.168 46.3247C118.464 45.7013 118.612 44.937 118.612 44.032C118.612 41.3169 117.002 39.9593 113.783 39.9593ZM113.503 30.3961H108.488V38.4509H113.853C114.988 38.4509 115.96 38.109 116.769 37.4252C117.593 36.7414 118.005 35.7056 118.005 34.3179C118.005 33.6341 117.912 33.0509 117.725 32.5682C117.554 32.0654 117.329 31.6832 117.049 31.4218C116.769 31.1402 116.419 30.919 115.999 30.7581C115.579 30.5972 115.183 30.4966 114.809 30.4564C114.436 30.4162 114.001 30.3961 113.503 30.3961Z" fill="white" fill-opacity="0.3"/>
<path d="M98.0981 30.3961H92.1497V28.8877H105.283V30.3961H99.3345V50.0052H98.0981V30.3961Z" fill="white" fill-opacity="0.3"/>
<path d="M90.8053 45.8421L91.4818 46.8979C90.8909 47.9438 90.02 48.7684 88.8692 49.3717C87.7184 49.9751 86.5909 50.2768 85.4867 50.2768C82.9207 50.2768 80.8679 49.2812 79.3283 47.2901C77.8043 45.299 77.0422 42.6845 77.0422 39.4465C77.0422 36.2889 77.7965 33.6945 79.305 31.6632C80.829 29.6319 82.7885 28.6162 85.1835 28.6162C86.3498 28.6162 87.4773 28.8877 88.5659 29.4307C89.6545 29.9738 90.5488 30.7782 91.2486 31.8442L90.5254 32.9001C89.7167 31.9146 88.8925 31.2106 88.0527 30.7883C87.2129 30.3458 86.2254 30.1246 85.0902 30.1246C82.9907 30.1246 81.3345 31.0095 80.1214 32.7794C78.924 34.5291 78.3252 36.7515 78.3252 39.4465C78.3252 42.2621 78.9862 44.5247 80.3081 46.2343C81.6455 47.9237 83.3873 48.7684 85.5334 48.7684C87.6795 48.7684 89.4368 47.7929 90.8053 45.8421Z" fill="white" fill-opacity="0.3"/>
<path d="M64.3616 41.5582V50.0052H63.1252V28.8877H68.9104C73.2804 28.8877 75.4654 30.9793 75.4654 35.1626C75.4654 36.3291 75.271 37.3448 74.8822 38.2096C74.509 39.0744 73.9958 39.7481 73.3426 40.2308C72.6894 40.6934 71.9896 41.0353 71.2431 41.2565C70.5122 41.4576 69.7269 41.5582 68.8871 41.5582H64.3616ZM69.0271 30.3659H64.3616V40.0498L68.8404 40.08C69.8046 40.08 70.66 39.9493 71.4064 39.6878C72.1529 39.4263 72.7983 38.9135 73.3426 38.1492C73.9025 37.3649 74.1824 36.3593 74.1824 35.1324C74.1824 31.9548 72.464 30.3659 69.0271 30.3659Z" fill="white" fill-opacity="0.3"/>
<path d="M47.005 50.0049H45.7454L52.9068 28.7969H54.0032L61.1647 50.0049H59.8584L57.7356 43.8205H49.0578L47.005 50.0049ZM57.2691 42.3121L53.3967 30.8181L49.5944 42.3121H57.2691Z" fill="white" fill-opacity="0.3"/>
<path d="M34.2434 50.0052H33.0071V28.8877H34.2434V40.2308L43.6677 28.8877H45.3239L37.2527 38.5716L45.9537 50.0052H44.2975L36.3662 39.6275L34.2434 42.1314V50.0052Z" fill="white" fill-opacity="0.3"/>
<path d="M29.8659 50.0052H18.179V28.8877H29.6327V30.3961H19.4153V38.5112H28.9562V40.0196H19.4153V48.4968H29.8659V50.0052Z" fill="white" fill-opacity="0.3"/>
<path d="M14.4399 50.0052H13.2035V30.3659H5.27222V34.3481C5.27222 44.8666 3.77149 50.1259 0.770045 50.1259C0.334602 50.1259 0.0780019 50.0857 0.000244141 50.0052V48.4365C1.33768 48.8387 2.34075 47.9236 3.00947 45.6912C3.69374 43.4387 4.03587 39.8587 4.03587 34.9514V28.8877H14.4399V50.0052Z" fill="white" fill-opacity="0.3"/>
<path d="M289.421 21.388H288.185V13.0919H282.866L277.431 21.388H275.868L281.443 12.8807C280.106 12.6192 279.017 11.9455 278.178 10.8594C277.338 9.75328 276.918 8.34544 276.918 6.63593C276.918 4.48396 277.517 2.88506 278.714 1.83924C279.927 0.793418 281.397 0.270508 283.123 0.270508H289.421V21.388ZM282.376 11.5835H288.185V1.74873H282.913C281.529 1.74873 280.394 2.16103 279.507 2.98562C278.636 3.79009 278.201 5.03703 278.201 6.72644C278.201 8.15438 278.605 9.28065 279.414 10.1052C280.223 10.9298 281.21 11.4226 282.376 11.5835Z" fill="white" fill-opacity="0.3"/>
<path d="M274.384 17.2259L275.061 18.2817C274.47 19.3276 273.599 20.1521 272.448 20.7555C271.297 21.3589 270.17 21.6605 269.066 21.6605C266.5 21.6605 264.447 20.665 262.907 18.6739C261.383 16.6828 260.621 14.0683 260.621 10.8303C260.621 7.6727 261.375 5.07826 262.884 3.04696C264.408 1.01565 266.367 0 268.762 0C269.929 0 271.056 0.271511 272.145 0.814533C273.233 1.35756 274.128 2.16203 274.827 3.22796L274.104 4.28384C273.296 3.29835 272.471 2.59444 271.632 2.17209C270.792 1.72963 269.804 1.50839 268.669 1.50839C266.57 1.50839 264.913 2.39332 263.7 4.16317C262.503 5.91291 261.904 8.13527 261.904 10.8303C261.904 13.6459 262.565 15.9085 263.887 17.618C265.224 19.3074 266.966 20.1521 269.112 20.1521C271.258 20.1521 273.016 19.1767 274.384 17.2259Z" fill="white" fill-opacity="0.3"/>
<path d="M253.428 1.7789H247.479V0.270508H260.613V1.7789H254.664V21.388H253.428V1.7789Z" fill="white" fill-opacity="0.3"/>
<path d="M246.109 21.388H234.422V0.270508H245.876V1.7789H235.658V9.89406H245.199V11.4025H235.658V19.8796H246.109V21.388Z" fill="white" fill-opacity="0.3"/>
<path d="M230.693 21.388H229.456V13.0919H224.138L218.703 21.388H217.14L222.715 12.8807C221.377 12.6192 220.289 11.9455 219.449 10.8594C218.609 9.75328 218.189 8.34544 218.189 6.63593C218.189 4.48396 218.788 2.88506 219.986 1.83924C221.199 0.793418 222.668 0.270508 224.394 0.270508H230.693V21.388ZM223.648 11.5835H229.456V1.74873H224.185C222.8 1.74873 221.665 2.16103 220.779 2.98562C219.908 3.79009 219.472 5.03703 219.472 6.72644C219.472 8.15438 219.877 9.28065 220.685 10.1052C221.494 10.9298 222.482 11.4226 223.648 11.5835Z" fill="white" fill-opacity="0.3"/>
<path d="M215.034 21.388H213.798V1.74873H205.867V5.73089C205.867 16.2494 204.366 21.5087 201.365 21.5087C200.929 21.5087 200.672 21.4685 200.595 21.388V19.8193C201.932 20.2215 202.935 19.3064 203.604 17.074C204.288 14.8215 204.63 11.2416 204.63 6.33425V0.270508H215.034V21.388Z" fill="white" fill-opacity="0.3"/>
<path d="M192.945 21.388H186.833V0.270508H192.991C193.613 0.270508 194.173 0.310732 194.671 0.39118C195.184 0.451516 195.705 0.592299 196.234 0.81353C196.778 1.03476 197.229 1.33644 197.587 1.71857C197.945 2.08058 198.24 2.58338 198.473 3.22696C198.707 3.85043 198.823 4.58452 198.823 5.42922C198.823 6.61582 198.582 7.6717 198.1 8.59684C197.618 9.50188 196.949 10.1153 196.094 10.4371C197.167 10.598 197.991 11.1309 198.567 12.036C199.142 12.941 199.43 14.0975 199.43 15.5053C199.43 19.4271 197.268 21.388 192.945 21.388ZM193.365 11.3421H188.069V19.8796H193.131C193.816 19.8796 194.422 19.8294 194.951 19.7288C195.495 19.6081 196.024 19.3969 196.537 19.0953C197.066 18.7936 197.47 18.331 197.75 17.7075C198.046 17.0841 198.193 16.3198 198.193 15.4148C198.193 12.6997 196.584 11.3421 193.365 11.3421ZM193.085 1.7789H188.069V9.83373H193.435C194.57 9.83373 195.542 9.49182 196.351 8.80802C197.175 8.12421 197.587 7.08845 197.587 5.70073C197.587 5.01692 197.494 4.43368 197.307 3.95099C197.136 3.44819 196.91 3.06606 196.63 2.80461C196.351 2.52304 196.001 2.30181 195.581 2.14092C195.161 1.98002 194.764 1.87946 194.391 1.83924C194.018 1.79901 193.582 1.7789 193.085 1.7789Z" fill="white" fill-opacity="0.3"/>
<path d="M183.102 21.388H181.866V13.0919H176.547L171.112 21.388H169.549L175.124 12.8807C173.787 12.6192 172.698 11.9455 171.858 10.8594C171.018 9.75328 170.599 8.34544 170.599 6.63593C170.599 4.48396 171.197 2.88506 172.395 1.83924C173.608 0.793418 175.077 0.270508 176.804 0.270508H183.102V21.388ZM176.057 11.5835H181.866V1.74873H176.594C175.21 1.74873 174.074 2.16103 173.188 2.98562C172.317 3.79009 171.882 5.03703 171.882 6.72644C171.882 8.15438 172.286 9.28065 173.095 10.1052C173.903 10.9298 174.891 11.4226 176.057 11.5835Z" fill="white" fill-opacity="0.3"/>
<path d="M161.045 21.388H149.358V0.270508H160.812V1.7789H150.595V9.89406H160.136V11.4025H150.595V19.8796H161.045V21.388Z" fill="white" fill-opacity="0.3"/>
<path d="M145.623 21.388H144.387V11.3723H133.213V21.388H131.977V0.270508H133.213V9.8639H144.387V0.270508H145.623V21.388Z" fill="white" fill-opacity="0.3"/>
<path d="M121.309 21.0578C121.107 20.7964 121.006 20.4846 121.006 20.1226C121.006 19.7606 121.107 19.469 121.309 19.2478C121.512 19.0064 121.753 18.8857 122.033 18.8857C122.281 18.8857 122.499 19.0165 122.686 19.2779C122.888 19.5193 122.989 19.8008 122.989 20.1226C122.989 20.4645 122.896 20.7763 122.709 21.0578C122.522 21.3193 122.297 21.45 122.033 21.45C121.737 21.45 121.496 21.3193 121.309 21.0578Z" fill="white" fill-opacity="0.3"/>
<path d="M102.96 22.5859H101.793V19.9098H103.496C105.16 17.2349 105.992 12.0963 105.992 4.49401V0.270508H116.466V19.9098H118.636V22.5859H117.469V21.388H102.96V22.5859ZM115.23 1.74873H107.182V5.61022C107.182 7.92309 106.987 10.5879 106.599 13.6047C106.225 16.6014 105.65 18.7031 104.872 19.9098H115.23V1.74873Z" fill="white" fill-opacity="0.3"/>
<path d="M87.2716 21.3897H86.012L93.1734 0.181641H94.2698L101.431 21.3897H100.125L98.0022 15.2052H89.3244L87.2716 21.3897ZM97.5357 13.6969L93.6633 2.20289L89.861 13.6969H97.5357Z" fill="white" fill-opacity="0.3"/>
<path d="M72.4524 0.270508H83.7195V1.7789H73.6887V9.38121H78.984C79.6217 9.38121 80.2126 9.44155 80.7569 9.56222C81.3168 9.66278 81.8611 9.85384 82.3898 10.1354C82.9186 10.3969 83.3696 10.7388 83.7428 11.1611C84.116 11.5835 84.4115 12.1365 84.6293 12.8203C84.8625 13.484 84.9792 14.2584 84.9792 15.1433C84.9792 16.3098 84.8003 17.3154 84.4426 18.1601C84.0849 19.0048 83.5951 19.6584 82.973 20.121C82.351 20.5634 81.6822 20.8852 80.9669 21.0863C80.267 21.2875 79.4895 21.388 78.6341 21.388H72.4524V0.270508ZM78.9374 10.8896H73.6887V19.8796H78.7974C82.0632 19.8796 83.6962 18.3109 83.6962 15.1734C83.6962 12.3176 82.1099 10.8896 78.9374 10.8896Z" fill="white" fill-opacity="0.3"/>
</svg>
