<svg width="1175" height="45" viewBox="0 0 1175 45" fill="none" xmlns="http://www.w3.org/2000/svg">
<g opacity="0.5">
<path d="M1157.83 37.2877C1157.64 37.2877 1157.47 37.1826 1157.34 36.9726C1157.22 36.7275 1157.17 36.4298 1157.17 36.0797V1.78393C1157.17 1.39878 1157.22 1.10116 1157.34 0.891081C1157.47 0.645985 1157.64 0.523438 1157.83 0.523438H1159.26C1159.49 0.523438 1159.66 0.628478 1159.78 0.838561C1159.89 1.04864 1159.96 1.22371 1159.98 1.36376L1166.07 22.582L1172.19 1.36376C1172.22 1.22371 1172.29 1.04864 1172.39 0.838561C1172.5 0.628478 1172.67 0.523438 1172.9 0.523438H1174.31C1174.52 0.523438 1174.68 0.645985 1174.8 0.891081C1174.93 1.10116 1175 1.39878 1175 1.78393V36.0797C1175 36.4298 1174.93 36.7275 1174.8 36.9726C1174.68 37.1826 1174.52 37.2877 1174.31 37.2877H1172.9C1172.71 37.2877 1172.55 37.1826 1172.42 36.9726C1172.3 36.7275 1172.24 36.4298 1172.24 36.0797V10.2397L1167.45 27.3613C1167.37 27.7115 1167.26 27.9916 1167.1 28.2017C1166.95 28.3767 1166.76 28.4643 1166.53 28.4643H1165.64C1165.39 28.4643 1165.19 28.3767 1165.03 28.2017C1164.9 27.9916 1164.79 27.7115 1164.69 27.3613L1159.89 10.2397V36.0797C1159.89 36.4298 1159.83 36.7275 1159.69 36.9726C1159.58 37.1826 1159.43 37.2877 1159.23 37.2877H1157.83Z" fill="white" fill-opacity="0.3"/>
<path d="M1144.94 37.8146C1143.31 37.8146 1141.91 37.307 1140.75 36.2916C1139.58 35.2411 1138.68 33.648 1138.05 31.5122C1137.42 29.3414 1137.06 26.6278 1136.98 23.3716C1136.97 21.831 1136.96 20.3604 1136.96 18.9598C1136.96 17.5243 1136.97 16.0362 1136.98 14.4956C1137.06 11.2744 1137.43 8.59583 1138.08 6.46C1138.75 4.28916 1139.67 2.67854 1140.83 1.62813C1142.02 0.542711 1143.39 0 1144.94 0C1146.51 0 1147.88 0.542711 1149.05 1.62813C1150.23 2.67854 1151.16 4.28916 1151.83 6.46C1152.5 8.59583 1152.87 11.2744 1152.92 14.4956C1152.96 16.0362 1152.98 17.5243 1152.98 18.9598C1152.98 20.3604 1152.96 21.831 1152.92 23.3716C1152.87 26.6278 1152.51 29.3414 1151.86 31.5122C1151.23 33.648 1150.33 35.2411 1149.16 36.2916C1147.99 37.307 1146.59 37.8146 1144.94 37.8146ZM1144.94 33.3504C1146.41 33.3504 1147.61 32.5451 1148.53 30.9345C1149.47 29.3239 1149.97 26.7153 1150.05 23.109C1150.09 21.5333 1150.11 20.1328 1150.11 18.9073C1150.11 17.6468 1150.09 16.2463 1150.05 14.7057C1150.01 12.2898 1149.76 10.329 1149.3 8.82342C1148.86 7.31783 1148.27 6.21491 1147.52 5.51464C1146.78 4.81437 1145.92 4.46423 1144.94 4.46423C1144 4.46423 1143.16 4.81437 1142.41 5.51464C1141.67 6.21491 1141.06 7.31783 1140.6 8.82342C1140.16 10.329 1139.91 12.2898 1139.86 14.7057C1139.84 16.2463 1139.83 17.6468 1139.83 18.9073C1139.83 20.1328 1139.84 21.5333 1139.86 23.109C1139.93 26.7153 1140.44 29.3239 1141.38 30.9345C1142.32 32.5451 1143.5 33.3504 1144.94 33.3504Z" fill="white" fill-opacity="0.3"/>
<path d="M1119.21 37.2877C1119 37.2877 1118.84 37.1826 1118.72 36.9726C1118.61 36.7275 1118.55 36.4298 1118.55 36.0797V1.78393C1118.55 1.39878 1118.61 1.10116 1118.72 0.891081C1118.84 0.645985 1119 0.523438 1119.21 0.523438H1127.08C1128.51 0.523438 1129.68 0.961107 1130.58 1.83645C1131.5 2.67677 1132.17 3.83222 1132.59 5.30279C1133.03 6.77336 1133.25 8.419 1133.25 10.2397C1133.25 11.6753 1133.12 12.9182 1132.85 13.9686C1132.6 14.984 1132.28 15.8244 1131.9 16.4896C1131.52 17.1199 1131.15 17.6101 1130.78 17.9602C1131.53 18.6255 1132.19 19.7109 1132.76 21.2165C1133.36 22.722 1133.65 24.5427 1133.65 26.6786C1133.65 28.6043 1133.41 30.3725 1132.94 31.9831C1132.46 33.5937 1131.74 34.8892 1130.78 35.8696C1129.84 36.815 1128.68 37.2877 1127.28 37.2877H1119.21ZM1121.36 33.0335H1126.9C1128.15 33.0335 1129.11 32.4208 1129.78 31.1953C1130.45 29.9698 1130.78 28.4643 1130.78 26.6786C1130.78 24.8229 1130.45 23.2998 1129.78 22.1093C1129.11 20.8838 1128.15 20.2711 1126.9 20.2711H1121.36V33.0335ZM1121.36 16.0695H1126.65C1127.87 16.0695 1128.8 15.5618 1129.43 14.5464C1130.06 13.496 1130.38 12.0779 1130.38 10.2922C1130.38 8.50653 1130.06 7.141 1129.43 6.19564C1128.8 5.25027 1127.87 4.77759 1126.65 4.77759H1121.36V16.0695Z" fill="white" fill-opacity="0.3"/>
<path d="M1106.97 37.2877C1106.78 37.2877 1106.62 37.1826 1106.48 36.9726C1106.37 36.7275 1106.31 36.4298 1106.31 36.0797V5.19775H1100.8C1100.61 5.19775 1100.44 5.09271 1100.31 4.88263C1100.19 4.63753 1100.14 4.33992 1100.14 3.98978V1.78393C1100.14 1.39878 1100.19 1.10116 1100.31 0.891081C1100.44 0.645985 1100.61 0.523438 1100.8 0.523438H1114.64C1114.85 0.523438 1115.01 0.645985 1115.13 0.891081C1115.26 1.10116 1115.33 1.39878 1115.33 1.78393V3.98978C1115.33 4.33992 1115.26 4.63753 1115.13 4.88263C1115.01 5.09271 1114.85 5.19775 1114.64 5.19775H1109.15V36.0797C1109.15 36.4298 1109.09 36.7275 1108.95 36.9726C1108.84 37.1826 1108.68 37.2877 1108.47 37.2877H1106.97Z" fill="white" fill-opacity="0.3"/>
<path d="M1090.03 37.8146C1088.27 37.8146 1086.8 37.2194 1085.63 36.029C1084.49 34.8385 1083.61 33.1754 1083.02 31.0395C1082.43 28.9037 1082.1 26.4177 1082.04 23.5816C1082.03 22.1461 1082.02 20.6055 1082.02 18.9598C1082.02 17.3142 1082.03 15.7386 1082.04 14.233C1082.1 11.3969 1082.43 8.91095 1083.02 6.77512C1083.61 4.6393 1084.49 2.97615 1085.63 1.78569C1086.8 0.59523 1088.27 0 1090.03 0C1091.35 0 1092.51 0.332628 1093.5 0.997886C1094.5 1.66314 1095.32 2.55599 1095.97 3.67642C1096.64 4.79686 1097.15 6.05735 1097.49 7.45789C1097.84 8.82342 1098.03 10.2415 1098.07 11.712C1098.09 12.0272 1098.03 12.2898 1097.9 12.4998C1097.78 12.7099 1097.64 12.815 1097.47 12.815H1095.89C1095.71 12.815 1095.56 12.7274 1095.43 12.5524C1095.31 12.3773 1095.23 12.0622 1095.17 11.607C1094.84 8.87594 1094.23 7.00271 1093.33 5.98732C1092.45 4.97193 1091.34 4.46423 1090 4.46423C1088.47 4.46423 1087.25 5.26954 1086.35 6.88016C1085.45 8.45578 1084.96 10.9943 1084.89 14.4956C1084.83 17.3667 1084.83 20.3079 1084.89 23.319C1084.96 26.8204 1085.45 29.3764 1086.35 30.987C1087.25 32.5626 1088.47 33.3504 1090 33.3504C1091.34 33.3504 1092.45 32.8427 1093.33 31.8273C1094.23 30.8119 1094.84 28.9387 1095.17 26.2077C1095.23 25.7525 1095.31 25.4374 1095.43 25.2623C1095.56 25.0872 1095.71 24.9997 1095.89 24.9997H1097.47C1097.64 24.9997 1097.78 25.1047 1097.9 25.3148C1098.03 25.5249 1098.09 25.7875 1098.07 26.1026C1098.03 27.5732 1097.84 29.0087 1097.49 30.4093C1097.15 31.7748 1096.64 33.0178 1095.97 34.1382C1095.32 35.2587 1094.5 36.1515 1093.5 36.8168C1092.51 37.482 1091.35 37.8146 1090.03 37.8146Z" fill="white" fill-opacity="0.3"/>
<path d="M1061.28 44.588C1061.09 44.588 1060.93 44.483 1060.79 44.2729C1060.68 44.0628 1060.62 43.7652 1060.62 43.38V33.7688C1060.62 33.4187 1060.68 33.1386 1060.79 32.9285C1060.93 32.6834 1061.09 32.5608 1061.28 32.5608H1061.88C1062.34 32.5608 1062.75 32.1757 1063.09 31.4054C1063.43 30.6351 1063.72 29.4621 1063.95 27.8865C1064.2 26.2759 1064.38 24.2451 1064.5 21.7942C1064.61 19.3432 1064.67 16.4371 1064.67 13.0758V1.73141C1064.67 1.38127 1064.73 1.10116 1064.84 0.891081C1064.98 0.645985 1065.14 0.523438 1065.33 0.523438H1076.53C1076.74 0.523438 1076.9 0.645985 1077.02 0.891081C1077.15 1.10116 1077.22 1.39878 1077.22 1.78393V32.5608H1078.63C1078.84 32.5608 1079 32.6834 1079.11 32.9285C1079.25 33.1386 1079.32 33.4187 1079.32 33.7688V43.38C1079.32 43.7302 1079.25 44.0103 1079.11 44.2204C1079 44.4655 1078.84 44.588 1078.63 44.588H1077.16C1076.95 44.588 1076.79 44.4655 1076.67 44.2204C1076.56 44.0103 1076.5 43.7302 1076.5 43.38V37.2877H1063.43V43.38C1063.43 43.7302 1063.37 44.0103 1063.23 44.2204C1063.12 44.4655 1062.96 44.588 1062.75 44.588H1061.28ZM1065.56 32.5608H1074.4V5.25027H1067.43V13.706C1067.43 18.678 1067.26 22.687 1066.94 25.7332C1066.63 28.7794 1066.17 31.0553 1065.56 32.5608Z" fill="white" fill-opacity="0.3"/>
<path d="M1045.7 37.2877C1045.49 37.2877 1045.33 37.1826 1045.21 36.9726C1045.1 36.7275 1045.04 36.4298 1045.04 36.0797V1.78393C1045.04 1.39878 1045.1 1.10116 1045.21 0.891081C1045.33 0.645985 1045.49 0.523438 1045.7 0.523438H1057.56C1057.77 0.523438 1057.94 0.645985 1058.05 0.891081C1058.17 1.10116 1058.22 1.39878 1058.22 1.78393V3.7797C1058.22 4.16485 1058.17 4.46246 1058.05 4.67254C1057.94 4.88263 1057.77 4.98767 1057.56 4.98767H1047.8V16.4896H1056.93C1057.14 16.4896 1057.3 16.6122 1057.42 16.8573C1057.53 17.0673 1057.59 17.365 1057.59 17.7501V19.6934C1057.59 20.0435 1057.53 20.3411 1057.42 20.5862C1057.3 20.7963 1057.14 20.9013 1056.93 20.9013H1047.8V32.8234H1057.79C1058 32.8234 1058.17 32.9285 1058.28 33.1386C1058.4 33.3487 1058.45 33.6463 1058.45 34.0314V36.0797C1058.45 36.4298 1058.4 36.7275 1058.28 36.9726C1058.17 37.1826 1058 37.2877 1057.79 37.2877H1045.7Z" fill="white" fill-opacity="0.3"/>
<path d="M1027.28 37.2877C1027.07 37.2877 1026.9 37.1826 1026.79 36.9726C1026.67 36.7275 1026.62 36.4298 1026.62 36.0797V1.78393C1026.62 1.39878 1026.67 1.10116 1026.79 0.891081C1026.9 0.645985 1027.07 0.523438 1027.28 0.523438H1034.57C1035.99 0.523438 1037.21 0.9436 1038.25 1.78393C1039.3 2.62425 1040.11 3.88474 1040.69 5.56539C1041.26 7.21103 1041.55 9.27683 1041.55 11.7628C1041.55 14.2488 1041.26 16.3146 1040.69 17.9602C1040.11 19.6058 1039.3 20.8488 1038.25 21.6891C1037.21 22.5295 1035.99 22.9496 1034.57 22.9496H1029.49V36.0797C1029.49 36.4298 1029.42 36.7275 1029.29 36.9726C1029.17 37.1826 1029.01 37.2877 1028.8 37.2877H1027.28ZM1029.46 18.5379H1034.43C1035.84 18.5379 1036.91 17.9602 1037.62 16.8047C1038.32 15.6493 1038.68 13.9686 1038.68 11.7628C1038.68 9.59195 1038.33 7.9113 1037.64 6.72084C1036.96 5.53038 1035.88 4.93515 1034.43 4.93515H1029.46V18.5379Z" fill="white" fill-opacity="0.3"/>
<path d="M1014.73 37.8146C1012.97 37.8146 1011.5 37.2194 1010.33 36.029C1009.18 34.8385 1008.31 33.1754 1007.72 31.0395C1007.13 28.9037 1006.8 26.4177 1006.74 23.5816C1006.72 22.1461 1006.71 20.6055 1006.71 18.9598C1006.71 17.3142 1006.72 15.7386 1006.74 14.233C1006.8 11.3969 1007.13 8.91095 1007.72 6.77512C1008.31 4.6393 1009.18 2.97615 1010.33 1.78569C1011.5 0.59523 1012.97 0 1014.73 0C1016.05 0 1017.21 0.332628 1018.2 0.997886C1019.2 1.66314 1020.02 2.55599 1020.67 3.67642C1021.34 4.79686 1021.85 6.05735 1022.19 7.45789C1022.54 8.82342 1022.73 10.2415 1022.77 11.712C1022.79 12.0272 1022.73 12.2898 1022.6 12.4998C1022.48 12.7099 1022.34 12.815 1022.17 12.815H1020.59C1020.41 12.815 1020.26 12.7274 1020.13 12.5524C1020.01 12.3773 1019.93 12.0622 1019.87 11.607C1019.54 8.87594 1018.93 7.00271 1018.03 5.98732C1017.15 4.97193 1016.04 4.46423 1014.7 4.46423C1013.17 4.46423 1011.95 5.26954 1011.05 6.88016C1010.15 8.45578 1009.66 10.9943 1009.59 14.4956C1009.53 17.3667 1009.53 20.3079 1009.59 23.319C1009.66 26.8204 1010.15 29.3764 1011.05 30.987C1011.95 32.5626 1013.17 33.3504 1014.7 33.3504C1016.04 33.3504 1017.15 32.8427 1018.03 31.8273C1018.93 30.8119 1019.54 28.9387 1019.87 26.2077C1019.93 25.7525 1020.01 25.4374 1020.13 25.2623C1020.26 25.0872 1020.41 24.9997 1020.59 24.9997H1022.17C1022.34 24.9997 1022.48 25.1047 1022.6 25.3148C1022.73 25.5249 1022.79 25.7875 1022.77 26.1026C1022.73 27.5732 1022.54 29.0087 1022.19 30.4093C1021.85 31.7748 1021.34 33.0178 1020.67 34.1382C1020.02 35.2587 1019.2 36.1515 1018.2 36.8168C1017.21 37.482 1016.05 37.8146 1014.73 37.8146Z" fill="white" fill-opacity="0.3"/>
<path d="M978.31 37.3541C978.119 37.3541 977.956 37.249 977.822 37.039C977.707 36.7939 977.65 36.4963 977.65 36.1461V1.85033C977.65 1.46518 977.707 1.16757 977.822 0.957487C977.956 0.712391 978.119 0.589844 978.31 0.589844H979.746C979.976 0.589844 980.148 0.694884 980.263 0.904967C980.378 1.11505 980.445 1.29012 980.464 1.43017L986.552 22.6484L992.669 1.43017C992.708 1.29012 992.775 1.11505 992.87 0.904967C992.985 0.694884 993.157 0.589844 993.387 0.589844H994.794C995.005 0.589844 995.168 0.712391 995.283 0.957487C995.417 1.16757 995.484 1.46518 995.484 1.85033V36.1461C995.484 36.4963 995.417 36.7939 995.283 37.039C995.168 37.249 995.005 37.3541 994.794 37.3541H993.387C993.196 37.3541 993.033 37.249 992.899 37.039C992.784 36.7939 992.727 36.4963 992.727 36.1461V10.3061L987.931 27.4277C987.854 27.7779 987.739 28.058 987.586 28.2681C987.433 28.4431 987.241 28.5307 987.012 28.5307H986.121C985.873 28.5307 985.672 28.4431 985.518 28.2681C985.384 28.058 985.269 27.7779 985.174 27.4277L980.378 10.3061V36.1461C980.378 36.4963 980.311 36.7939 980.177 37.039C980.062 37.249 979.909 37.3541 979.717 37.3541H978.31Z" fill="white" fill-opacity="0.3"/>
<path d="M954.668 37.2877C954.458 37.2877 954.295 37.1826 954.18 36.9726C954.065 36.7275 954.008 36.4298 954.008 36.0797V1.73141C954.008 1.38127 954.065 1.10116 954.18 0.891081C954.295 0.645985 954.458 0.523438 954.668 0.523438H956.133C956.344 0.523438 956.506 0.645985 956.621 0.891081C956.755 1.10116 956.822 1.38127 956.822 1.73141V14.4938H960.498C962.585 14.4938 964.193 15.4567 965.323 17.3825C966.471 19.2732 967.046 22.0568 967.046 25.7332C967.046 27.729 966.806 29.6197 966.328 31.4054C965.868 33.1561 965.15 34.5741 964.174 35.6595C963.198 36.745 961.972 37.2877 960.498 37.2877H954.668ZM956.822 32.876H960.268C961.513 32.876 962.47 32.2107 963.14 30.8802C963.829 29.5497 964.174 27.799 964.174 25.6282C964.174 23.3873 963.849 21.7066 963.198 20.5862C962.547 19.4308 961.57 18.853 960.268 18.853H956.822V32.876ZM970.463 37.2877C970.253 37.2877 970.09 37.1826 969.975 36.9726C969.86 36.7275 969.803 36.4298 969.803 36.0797V1.73141C969.803 1.38127 969.86 1.10116 969.975 0.891081C970.09 0.645985 970.253 0.523438 970.463 0.523438H971.985C972.177 0.523438 972.33 0.645985 972.445 0.891081C972.579 1.10116 972.646 1.38127 972.646 1.73141V36.0797C972.646 36.4298 972.579 36.7275 972.445 36.9726C972.33 37.1826 972.177 37.2877 971.985 37.2877H970.463Z" fill="white" fill-opacity="0.3"/>
<path d="M934.195 37.2877C933.985 37.2877 933.822 37.1826 933.707 36.9726C933.592 36.7275 933.535 36.4298 933.535 36.0797V1.78393C933.535 1.39878 933.592 1.10116 933.707 0.891081C933.822 0.645985 933.985 0.523438 934.195 0.523438H935.66C935.871 0.523438 936.033 0.645985 936.148 0.891081C936.282 1.10116 936.349 1.39878 936.349 1.78393V16.2795H946.228V1.78393C946.228 1.39878 946.286 1.10116 946.401 0.891081C946.535 0.645985 946.697 0.523438 946.889 0.523438H948.353C948.564 0.523438 948.727 0.645985 948.842 0.891081C948.976 1.10116 949.043 1.39878 949.043 1.78393V36.0797C949.043 36.4298 948.976 36.7275 948.842 36.9726C948.727 37.1826 948.564 37.2877 948.353 37.2877H946.889C946.697 37.2877 946.535 37.1826 946.401 36.9726C946.286 36.7275 946.228 36.4298 946.228 36.0797V21.0064H936.349V36.0797C936.349 36.4298 936.282 36.7275 936.148 36.9726C936.033 37.1826 935.871 37.2877 935.66 37.2877H934.195Z" fill="white" fill-opacity="0.3"/>
<path d="M913.723 37.2877C913.512 37.2877 913.349 37.1826 913.234 36.9726C913.119 36.7275 913.062 36.4298 913.062 36.0797V1.78393C913.062 1.39878 913.119 1.10116 913.234 0.891081C913.349 0.645985 913.512 0.523438 913.723 0.523438H915.187C915.398 0.523438 915.56 0.645985 915.675 0.891081C915.809 1.10116 915.876 1.39878 915.876 1.78393V16.2795H925.755V1.78393C925.755 1.39878 925.813 1.10116 925.928 0.891081C926.062 0.645985 926.224 0.523438 926.416 0.523438H927.881C928.091 0.523438 928.254 0.645985 928.369 0.891081C928.503 1.10116 928.57 1.39878 928.57 1.78393V36.0797C928.57 36.4298 928.503 36.7275 928.369 36.9726C928.254 37.1826 928.091 37.2877 927.881 37.2877H926.416C926.224 37.2877 926.062 37.1826 925.928 36.9726C925.813 36.7275 925.755 36.4298 925.755 36.0797V21.0064H915.876V36.0797C915.876 36.4298 915.809 36.7275 915.675 36.9726C915.56 37.1826 915.398 37.2877 915.187 37.2877H913.723Z" fill="white" fill-opacity="0.3"/>
<path d="M896.307 37.2877C896.096 37.2877 895.933 37.1826 895.818 36.9726C895.703 36.7275 895.646 36.4298 895.646 36.0797V1.78393C895.646 1.39878 895.703 1.10116 895.818 0.891081C895.933 0.645985 896.096 0.523438 896.307 0.523438H908.167C908.378 0.523438 908.54 0.645985 908.655 0.891081C908.77 1.10116 908.828 1.39878 908.828 1.78393V3.7797C908.828 4.16485 908.77 4.46246 908.655 4.67254C908.54 4.88263 908.378 4.98767 908.167 4.98767H898.403V16.4896H907.535C907.746 16.4896 907.909 16.6122 908.023 16.8573C908.138 17.0673 908.196 17.365 908.196 17.7501V19.6934C908.196 20.0435 908.138 20.3411 908.023 20.5862C907.909 20.7963 907.746 20.9013 907.535 20.9013H898.403V32.8234H908.397C908.607 32.8234 908.77 32.9285 908.885 33.1386C909 33.3487 909.057 33.6463 909.057 34.0314V36.0797C909.057 36.4298 909 36.7275 908.885 36.9726C908.77 37.1826 908.607 37.2877 908.397 37.2877H896.307Z" fill="white" fill-opacity="0.3"/>
<path d="M877.124 37.2877C876.913 37.2877 876.751 37.1826 876.636 36.9726C876.521 36.7275 876.463 36.4298 876.463 36.0797V1.78393C876.463 1.39878 876.521 1.10116 876.636 0.891081C876.751 0.645985 876.913 0.523438 877.124 0.523438H884.993C886.429 0.523438 887.596 0.961107 888.496 1.83645C889.415 2.67677 890.085 3.83222 890.507 5.30279C890.947 6.77336 891.167 8.419 891.167 10.2397C891.167 11.6753 891.033 12.9182 890.765 13.9686C890.516 14.984 890.2 15.8244 889.817 16.4896C889.434 17.1199 889.061 17.6101 888.697 17.9602C889.444 18.6255 890.104 19.7109 890.679 21.2165C891.272 22.722 891.569 24.5427 891.569 26.6786C891.569 28.6043 891.33 30.3725 890.851 31.9831C890.373 33.5937 889.655 34.8892 888.697 35.8696C887.759 36.815 886.591 37.2877 885.194 37.2877H877.124ZM879.278 33.0335H884.82C886.065 33.0335 887.022 32.4208 887.692 31.1953C888.362 29.9698 888.697 28.4643 888.697 26.6786C888.697 24.8229 888.362 23.2998 887.692 22.1093C887.022 20.8838 886.065 20.2711 884.82 20.2711H879.278V33.0335ZM879.278 16.0695H884.562C885.787 16.0695 886.716 15.5618 887.348 14.5464C887.979 13.496 888.295 12.0779 888.295 10.2922C888.295 8.50653 887.979 7.141 887.348 6.19564C886.716 5.25027 885.787 4.77759 884.562 4.77759H879.278V16.0695Z" fill="white" fill-opacity="0.3"/>
<path d="M864.887 37.2877C864.695 37.2877 864.532 37.1826 864.398 36.9726C864.284 36.7275 864.226 36.4298 864.226 36.0797V5.19775H858.712C858.521 5.19775 858.358 5.09271 858.224 4.88263C858.109 4.63753 858.052 4.33992 858.052 3.98978V1.78393C858.052 1.39878 858.109 1.10116 858.224 0.891081C858.358 0.645985 858.521 0.523438 858.712 0.523438H872.554C872.765 0.523438 872.928 0.645985 873.043 0.891081C873.177 1.10116 873.244 1.39878 873.244 1.78393V3.98978C873.244 4.33992 873.177 4.63753 873.043 4.88263C872.928 5.09271 872.765 5.19775 872.554 5.19775H867.069V36.0797C867.069 36.4298 867.002 36.7275 866.868 36.9726C866.753 37.1826 866.591 37.2877 866.38 37.2877H864.887Z" fill="white" fill-opacity="0.3"/>
<path d="M847.944 37.8146C846.182 37.8146 844.717 37.2194 843.55 36.029C842.401 34.8385 841.53 33.1754 840.936 31.0395C840.343 28.9037 840.017 26.4177 839.96 23.5816C839.941 22.1461 839.931 20.6055 839.931 18.9598C839.931 17.3142 839.941 15.7386 839.96 14.233C840.017 11.3969 840.343 8.91095 840.936 6.77512C841.53 4.6393 842.401 2.97615 843.55 1.78569C844.717 0.59523 846.182 0 847.944 0C849.265 0 850.423 0.332628 851.418 0.997886C852.414 1.66314 853.237 2.55599 853.888 3.67642C854.558 4.79686 855.066 6.05735 855.41 7.45789C855.755 8.82342 855.946 10.2415 855.985 11.712C856.004 12.0272 855.946 12.2898 855.812 12.4998C855.697 12.7099 855.554 12.815 855.381 12.815H853.802C853.63 12.815 853.477 12.7274 853.343 12.5524C853.228 12.3773 853.141 12.0622 853.084 11.607C852.759 8.87594 852.146 7.00271 851.246 5.98732C850.365 4.97193 849.255 4.46423 847.915 4.46423C846.383 4.46423 845.167 5.26954 844.268 6.88016C843.368 8.45578 842.88 10.9943 842.803 14.4956C842.746 17.3667 842.746 20.3079 842.803 23.319C842.88 26.8204 843.368 29.3764 844.268 30.987C845.167 32.5626 846.383 33.3504 847.915 33.3504C849.255 33.3504 850.365 32.8427 851.246 31.8273C852.146 30.8119 852.759 28.9387 853.084 26.2077C853.141 25.7525 853.228 25.4374 853.343 25.2623C853.477 25.0872 853.63 24.9997 853.802 24.9997H855.381C855.554 24.9997 855.697 25.1047 855.812 25.3148C855.946 25.5249 856.004 25.7875 855.985 26.1026C855.946 27.5732 855.755 29.0087 855.41 30.4093C855.066 31.7748 854.558 33.0178 853.888 34.1382C853.237 35.2587 852.414 36.1515 851.418 36.8168C850.423 37.482 849.265 37.8146 847.944 37.8146Z" fill="white" fill-opacity="0.3"/>
<path d="M822.941 37.2877C822.73 37.2877 822.567 37.1826 822.453 36.9726C822.338 36.7275 822.28 36.4298 822.28 36.0797V1.78393C822.28 1.39878 822.338 1.10116 822.453 0.891081C822.567 0.645985 822.73 0.523438 822.941 0.523438H830.235C831.652 0.523438 832.877 0.9436 833.911 1.78393C834.964 2.62425 835.778 3.88474 836.352 5.56539C836.926 7.21103 837.214 9.27683 837.214 11.7628C837.214 14.2488 836.926 16.3146 836.352 17.9602C835.778 19.6058 834.964 20.8488 833.911 21.6891C832.877 22.5295 831.652 22.9496 830.235 22.9496H825.152V36.0797C825.152 36.4298 825.085 36.7275 824.951 36.9726C824.836 37.1826 824.673 37.2877 824.463 37.2877H822.941ZM825.123 18.5379H830.092C831.508 18.5379 832.571 17.9602 833.279 16.8047C833.988 15.6493 834.342 13.9686 834.342 11.7628C834.342 9.59195 833.997 7.9113 833.308 6.72084C832.619 5.53038 831.547 4.93515 830.092 4.93515H825.123V18.5379Z" fill="white" fill-opacity="0.3"/>
<path d="M801.692 37.2877C801.538 37.2877 801.404 37.1826 801.29 36.9726C801.175 36.7625 801.117 36.5174 801.117 36.2373C801.117 36.0622 801.127 35.8696 801.146 35.6595L808.268 1.67888C808.345 1.32875 808.45 1.04864 808.584 0.838561C808.718 0.628478 808.919 0.523438 809.187 0.523438H811.14C811.389 0.523438 811.58 0.628478 811.714 0.838561C811.867 1.04864 811.982 1.32875 812.059 1.67888L819.152 35.6595C819.19 35.8696 819.21 36.0622 819.21 36.2373C819.21 36.5174 819.152 36.7625 819.037 36.9726C818.922 37.1826 818.788 37.2877 818.635 37.2877H817.171C816.941 37.2877 816.769 37.1826 816.654 36.9726C816.558 36.7625 816.491 36.5699 816.453 36.3948L814.873 28.9369H805.454L803.874 36.3948C803.855 36.5699 803.788 36.7625 803.673 36.9726C803.558 37.1826 803.386 37.2877 803.156 37.2877H801.692ZM806.286 24.4202H814.04L810.163 5.77547L806.286 24.4202Z" fill="white" fill-opacity="0.3"/>
<path d="M785.332 37.2877C785.122 37.2877 784.959 37.1826 784.844 36.9726C784.729 36.7275 784.672 36.4298 784.672 36.0797V1.78393C784.672 1.39878 784.729 1.10116 784.844 0.891081C784.959 0.645985 785.122 0.523438 785.332 0.523438H786.797C787.008 0.523438 787.17 0.645985 787.285 0.891081C787.419 1.10116 787.486 1.39878 787.486 1.78393V16.2795H790.731L795.843 1.36376C795.939 1.08366 796.063 0.873574 796.217 0.733519C796.37 0.593465 796.571 0.523438 796.82 0.523438H798.37C798.581 0.523438 798.734 0.628478 798.83 0.838561C798.926 1.04864 798.974 1.29374 798.974 1.57385C798.974 1.78393 798.926 2.01151 798.83 2.25661L793.316 18.3278L799.376 35.4495C799.433 35.5895 799.462 35.7821 799.462 36.0272C799.462 36.3773 799.395 36.6749 799.261 36.92C799.146 37.1651 798.993 37.2877 798.801 37.2877H797.164C796.954 37.2877 796.791 37.2177 796.676 37.0776C796.58 36.9025 796.494 36.71 796.418 36.4999L790.846 21.0064H787.486V36.0797C787.486 36.4298 787.419 36.7275 787.285 36.9726C787.17 37.1826 787.008 37.2877 786.797 37.2877H785.332Z" fill="white" fill-opacity="0.3"/>
<path d="M767.916 37.2877C767.706 37.2877 767.543 37.1826 767.428 36.9726C767.313 36.7275 767.256 36.4298 767.256 36.0797V1.78393C767.256 1.39878 767.313 1.10116 767.428 0.891081C767.543 0.645985 767.706 0.523438 767.916 0.523438H779.777C779.988 0.523438 780.15 0.645985 780.265 0.891081C780.38 1.10116 780.437 1.39878 780.437 1.78393V3.7797C780.437 4.16485 780.38 4.46246 780.265 4.67254C780.15 4.88263 779.988 4.98767 779.777 4.98767H770.013V16.4896H779.145C779.356 16.4896 779.518 16.6122 779.633 16.8573C779.748 17.0673 779.806 17.365 779.806 17.7501V19.6934C779.806 20.0435 779.748 20.3411 779.633 20.5862C779.518 20.7963 779.356 20.9013 779.145 20.9013H770.013V32.8234H780.007C780.217 32.8234 780.38 32.9285 780.495 33.1386C780.61 33.3487 780.667 33.6463 780.667 34.0314V36.0797C780.667 36.4298 780.61 36.7275 780.495 36.9726C780.38 37.1826 780.217 37.2877 780.007 37.2877H767.916Z" fill="white" fill-opacity="0.3"/>
<path d="M760.103 37.2877C759.911 37.2877 759.749 37.1826 759.615 36.9726C759.5 36.7275 759.442 36.4298 759.442 36.0797V5.25027H752.32V13.706C752.32 17.9077 752.196 21.4966 751.947 24.4727C751.698 27.4139 751.315 29.8123 750.798 31.668C750.281 33.4887 749.611 34.8542 748.788 35.7646C747.984 36.6399 747.007 37.1301 745.859 37.2352C745.667 37.2702 745.504 37.1651 745.37 36.92C745.236 36.6749 745.169 36.3598 745.169 35.9747V33.6638C745.169 32.9635 745.37 32.5608 745.773 32.4558C746.366 32.2807 746.893 31.8081 747.352 31.0378C747.831 30.2675 748.233 29.1295 748.558 27.6239C748.884 26.0833 749.133 24.1226 749.305 21.7417C749.477 19.3257 749.563 16.4371 749.563 13.0758V1.73141C749.563 1.38127 749.621 1.10116 749.736 0.891081C749.87 0.645985 750.032 0.523438 750.224 0.523438H761.567C761.778 0.523438 761.941 0.645985 762.056 0.891081C762.19 1.10116 762.257 1.39878 762.257 1.78393V36.0797C762.257 36.4298 762.19 36.7275 762.056 36.9726C761.941 37.1826 761.778 37.2877 761.567 37.2877H760.103Z" fill="white" fill-opacity="0.3"/>
<path d="M732.841 37.2877C732.65 37.2877 732.487 37.1826 732.353 36.9726C732.219 36.7275 732.152 36.4298 732.152 36.0797V23.3173H727.529C726.208 23.3173 725.068 22.8796 724.111 22.0043C723.173 21.1289 722.446 19.8509 721.929 18.1703C721.431 16.4896 721.182 14.4413 721.182 12.0254C721.182 10.0646 721.412 8.20892 721.871 6.45824C722.35 4.70756 723.068 3.28951 724.025 2.20409C725.001 1.08365 726.236 0.523438 727.73 0.523438H734.306C734.498 0.523438 734.651 0.645985 734.766 0.891081C734.9 1.10116 734.967 1.38127 734.967 1.73141V36.0797C734.967 36.4298 734.9 36.7275 734.766 36.9726C734.651 37.1826 734.498 37.2877 734.306 37.2877H732.841ZM721.383 37.2877C721.23 37.2877 721.096 37.1826 720.981 36.9726C720.866 36.7625 720.809 36.5174 720.809 36.2373C720.809 36.0622 720.837 35.8696 720.895 35.6595L726.007 20.9538L728.764 21.7417L723.881 35.8696C723.767 36.2198 723.633 36.5524 723.479 36.8675C723.326 37.1476 723.087 37.2877 722.761 37.2877H721.383ZM727.959 18.9056H732.152V4.93515H727.959C726.715 4.93515 725.748 5.6004 725.059 6.93092C724.389 8.26144 724.054 9.99461 724.054 12.1304C724.054 14.3713 724.37 16.0695 725.001 17.2249C725.652 18.3453 726.638 18.9056 727.959 18.9056Z" fill="white" fill-opacity="0.3"/>
<path d="M709.12 37.8146C707.359 37.8146 705.894 37.2194 704.726 36.029C703.578 34.8385 702.707 33.1754 702.113 31.0395C701.52 28.9037 701.194 26.4177 701.137 23.5816C701.117 22.1461 701.108 20.6055 701.108 18.9598C701.108 17.3142 701.117 15.7386 701.137 14.233C701.194 11.3969 701.52 8.91095 702.113 6.77512C702.707 4.6393 703.578 2.97615 704.726 1.78569C705.894 0.59523 707.359 0 709.12 0C710.441 0 711.6 0.332628 712.595 0.997886C713.591 1.66314 714.414 2.55599 715.065 3.67642C715.735 4.79686 716.242 6.05735 716.587 7.45789C716.932 8.82342 717.123 10.2415 717.161 11.712C717.18 12.0272 717.123 12.2898 716.989 12.4998C716.874 12.7099 716.731 12.815 716.558 12.815H714.979C714.806 12.815 714.653 12.7274 714.519 12.5524C714.404 12.3773 714.318 12.0622 714.261 11.607C713.935 8.87594 713.323 7.00271 712.423 5.98732C711.542 4.97193 710.432 4.46423 709.092 4.46423C707.56 4.46423 706.344 5.26954 705.444 6.88016C704.545 8.45578 704.056 10.9943 703.98 14.4956C703.922 17.3667 703.922 20.3079 703.98 23.319C704.056 26.8204 704.545 29.3764 705.444 30.987C706.344 32.5626 707.56 33.3504 709.092 33.3504C710.432 33.3504 711.542 32.8427 712.423 31.8273C713.323 30.8119 713.935 28.9387 714.261 26.2077C714.318 25.7525 714.404 25.4374 714.519 25.2623C714.653 25.0872 714.806 24.9997 714.979 24.9997H716.558C716.731 24.9997 716.874 25.1047 716.989 25.3148C717.123 25.5249 717.18 25.7875 717.161 26.1026C717.123 27.5732 716.932 29.0087 716.587 30.4093C716.242 31.7748 715.735 33.0178 715.065 34.1382C714.414 35.2587 713.591 36.1515 712.595 36.8168C711.6 37.482 710.441 37.8146 709.12 37.8146Z" fill="white" fill-opacity="0.3"/>
<path d="M690.306 37.2877C690.115 37.2877 689.952 37.1826 689.818 36.9726C689.703 36.7275 689.646 36.4298 689.646 36.0797V5.19775H684.132C683.941 5.19775 683.778 5.09271 683.644 4.88263C683.529 4.63753 683.471 4.33992 683.471 3.98978V1.78393C683.471 1.39878 683.529 1.10116 683.644 0.891081C683.778 0.645985 683.941 0.523438 684.132 0.523438H697.974C698.185 0.523438 698.347 0.645985 698.462 0.891081C698.596 1.10116 698.663 1.39878 698.663 1.78393V3.98978C698.663 4.33992 698.596 4.63753 698.462 4.88263C698.347 5.09271 698.185 5.19775 697.974 5.19775H692.489V36.0797C692.489 36.4298 692.422 36.7275 692.288 36.9726C692.173 37.1826 692.01 37.2877 691.8 37.2877H690.306Z" fill="white" fill-opacity="0.3"/>
<path d="M668.497 37.2877C668.286 37.2877 668.124 37.1826 668.009 36.9726C667.894 36.7275 667.836 36.4298 667.836 36.0797V1.78393C667.836 1.39878 667.894 1.10116 668.009 0.891081C668.124 0.645985 668.286 0.523438 668.497 0.523438H680.358C680.568 0.523438 680.731 0.645985 680.846 0.891081C680.961 1.10116 681.018 1.39878 681.018 1.78393V3.7797C681.018 4.16485 680.961 4.46246 680.846 4.67254C680.731 4.88263 680.568 4.98767 680.358 4.98767H670.593V16.4896H679.726C679.936 16.4896 680.099 16.6122 680.214 16.8573C680.329 17.0673 680.386 17.365 680.386 17.7501V19.6934C680.386 20.0435 680.329 20.3411 680.214 20.5862C680.099 20.7963 679.936 20.9013 679.726 20.9013H670.593V32.8234H680.587C680.798 32.8234 680.961 32.9285 681.075 33.1386C681.19 33.3487 681.248 33.6463 681.248 34.0314V36.0797C681.248 36.4298 681.19 36.7275 681.075 36.9726C680.961 37.1826 680.798 37.2877 680.587 37.2877H668.497Z" fill="white" fill-opacity="0.3"/>
<path d="M660.71 37.2877C660.518 37.2877 660.355 37.1826 660.221 36.9726C660.087 36.7275 660.02 36.4298 660.02 36.0797V23.3173H655.397C654.076 23.3173 652.937 22.8796 651.979 22.0043C651.041 21.1289 650.314 19.8509 649.797 18.1703C649.299 16.4896 649.05 14.4413 649.05 12.0254C649.05 10.0646 649.28 8.20892 649.739 6.45824C650.218 4.70756 650.936 3.28951 651.893 2.20409C652.87 1.08365 654.104 0.523438 655.598 0.523438H662.174C662.366 0.523438 662.519 0.645985 662.634 0.891081C662.768 1.10116 662.835 1.38127 662.835 1.73141V36.0797C662.835 36.4298 662.768 36.7275 662.634 36.9726C662.519 37.1826 662.366 37.2877 662.174 37.2877H660.71ZM649.251 37.2877C649.098 37.2877 648.964 37.1826 648.849 36.9726C648.734 36.7625 648.677 36.5174 648.677 36.2373C648.677 36.0622 648.705 35.8696 648.763 35.6595L653.875 20.9538L656.632 21.7417L651.75 35.8696C651.635 36.2198 651.501 36.5524 651.348 36.8675C651.194 37.1476 650.955 37.2877 650.63 37.2877H649.251ZM655.828 18.9056H660.02V4.93515H655.828C654.583 4.93515 653.616 5.6004 652.927 6.93092C652.257 8.26144 651.922 9.99461 651.922 12.1304C651.922 14.3713 652.238 16.0695 652.87 17.2249C653.521 18.3453 654.507 18.9056 655.828 18.9056Z" fill="white" fill-opacity="0.3"/>
<path d="M641.725 37.2877C641.533 37.2877 641.371 37.1826 641.237 36.9726C641.122 36.7275 641.064 36.4298 641.064 36.0797V5.25027H633.942V13.706C633.942 17.9077 633.818 21.4966 633.569 24.4727C633.32 27.4139 632.937 29.8123 632.42 31.668C631.903 33.4887 631.233 34.8542 630.41 35.7646C629.606 36.6399 628.629 37.1301 627.481 37.2352C627.289 37.2702 627.127 37.1651 626.993 36.92C626.859 36.6749 626.792 36.3598 626.792 35.9747V33.6638C626.792 32.9635 626.993 32.5608 627.395 32.4558C627.988 32.2807 628.515 31.8081 628.974 31.0378C629.453 30.2675 629.855 29.1295 630.18 27.6239C630.506 26.0833 630.755 24.1226 630.927 21.7417C631.099 19.3257 631.185 16.4371 631.185 13.0758V1.73141C631.185 1.38127 631.243 1.10116 631.358 0.891081C631.492 0.645985 631.654 0.523438 631.846 0.523438H643.19C643.4 0.523438 643.563 0.645985 643.678 0.891081C643.812 1.10116 643.879 1.39878 643.879 1.78393V36.0797C643.879 36.4298 643.812 36.7275 643.678 36.9726C643.563 37.1826 643.4 37.2877 643.19 37.2877H641.725Z" fill="white" fill-opacity="0.3"/>
<path d="M610.107 37.2877C609.896 37.2877 609.734 37.1826 609.619 36.9726C609.504 36.7275 609.447 36.4298 609.447 36.0797V1.78393C609.447 1.39878 609.504 1.10116 609.619 0.891081C609.734 0.645985 609.896 0.523438 610.107 0.523438H617.976C619.412 0.523438 620.58 0.961107 621.479 1.83645C622.398 2.67677 623.068 3.83222 623.49 5.30279C623.93 6.77336 624.15 8.419 624.15 10.2397C624.15 11.6753 624.016 12.9182 623.748 13.9686C623.499 14.984 623.183 15.8244 622.8 16.4896C622.418 17.1199 622.044 17.6101 621.68 17.9602C622.427 18.6255 623.088 19.7109 623.662 21.2165C624.255 22.722 624.552 24.5427 624.552 26.6786C624.552 28.6043 624.313 30.3725 623.834 31.9831C623.356 33.5937 622.638 34.8892 621.68 35.8696C620.742 36.815 619.574 37.2877 618.177 37.2877H610.107ZM612.261 33.0335H617.803C619.048 33.0335 620.005 32.4208 620.675 31.1953C621.345 29.9698 621.68 28.4643 621.68 26.6786C621.68 24.8229 621.345 23.2998 620.675 22.1093C620.005 20.8838 619.048 20.2711 617.803 20.2711H612.261V33.0335ZM612.261 16.0695H617.545C618.77 16.0695 619.699 15.5618 620.331 14.5464C620.962 13.496 621.278 12.0779 621.278 10.2922C621.278 8.50653 620.962 7.141 620.331 6.19564C619.699 5.25027 618.77 4.77759 617.545 4.77759H612.261V16.0695Z" fill="white" fill-opacity="0.3"/>
<path d="M602.32 37.2877C602.128 37.2877 601.966 37.1826 601.832 36.9726C601.698 36.7275 601.631 36.4298 601.631 36.0797V23.3173H597.007C595.686 23.3173 594.547 22.8796 593.589 22.0043C592.651 21.1289 591.924 19.8509 591.407 18.1703C590.909 16.4896 590.66 14.4413 590.66 12.0254C590.66 10.0646 590.89 8.20892 591.349 6.45824C591.828 4.70756 592.546 3.28951 593.503 2.20409C594.48 1.08365 595.715 0.523438 597.208 0.523438H603.784C603.976 0.523438 604.129 0.645985 604.244 0.891081C604.378 1.10116 604.445 1.38127 604.445 1.73141V36.0797C604.445 36.4298 604.378 36.7275 604.244 36.9726C604.129 37.1826 603.976 37.2877 603.784 37.2877H602.32ZM590.861 37.2877C590.708 37.2877 590.574 37.1826 590.459 36.9726C590.344 36.7625 590.287 36.5174 590.287 36.2373C590.287 36.0622 590.316 35.8696 590.373 35.6595L595.485 20.9538L598.242 21.7417L593.36 35.8696C593.245 36.2198 593.111 36.5524 592.958 36.8675C592.805 37.1476 592.565 37.2877 592.24 37.2877H590.861ZM597.438 18.9056H601.631V4.93515H597.438C596.193 4.93515 595.226 5.6004 594.537 6.93092C593.867 8.26144 593.532 9.99461 593.532 12.1304C593.532 14.3713 593.848 16.0695 594.48 17.2249C595.131 18.3453 596.117 18.9056 597.438 18.9056Z" fill="white" fill-opacity="0.3"/>
<path d="M566.693 37.2877C566.483 37.2877 566.32 37.1826 566.205 36.9726C566.09 36.7275 566.033 36.4298 566.033 36.0797V1.78393C566.033 1.39878 566.09 1.10116 566.205 0.891081C566.32 0.645985 566.483 0.523438 566.693 0.523438H578.554C578.765 0.523438 578.927 0.645985 579.042 0.891081C579.157 1.10116 579.215 1.39878 579.215 1.78393V3.7797C579.215 4.16485 579.157 4.46246 579.042 4.67254C578.927 4.88263 578.765 4.98767 578.554 4.98767H568.79V16.4896H577.922C578.133 16.4896 578.296 16.6122 578.41 16.8573C578.525 17.0673 578.583 17.365 578.583 17.7501V19.6934C578.583 20.0435 578.525 20.3411 578.41 20.5862C578.296 20.7963 578.133 20.9013 577.922 20.9013H568.79V32.8234H578.784C578.994 32.8234 579.157 32.9285 579.272 33.1386C579.387 33.3487 579.444 33.6463 579.444 34.0314V36.0797C579.444 36.4298 579.387 36.7275 579.272 36.9726C579.157 37.1826 578.994 37.2877 578.784 37.2877H566.693Z" fill="white" fill-opacity="0.3"/>
<path d="M546.221 37.2877C546.01 37.2877 545.847 37.1826 545.732 36.9726C545.618 36.7275 545.56 36.4298 545.56 36.0797V1.78393C545.56 1.39878 545.618 1.10116 545.732 0.891081C545.847 0.645985 546.01 0.523438 546.221 0.523438H547.685C547.896 0.523438 548.059 0.645985 548.173 0.891081C548.307 1.10116 548.374 1.39878 548.374 1.78393V16.2795H558.253V1.78393C558.253 1.39878 558.311 1.10116 558.426 0.891081C558.56 0.645985 558.723 0.523438 558.914 0.523438H560.379C560.589 0.523438 560.752 0.645985 560.867 0.891081C561.001 1.10116 561.068 1.39878 561.068 1.78393V36.0797C561.068 36.4298 561.001 36.7275 560.867 36.9726C560.752 37.1826 560.589 37.2877 560.379 37.2877H558.914C558.723 37.2877 558.56 37.1826 558.426 36.9726C558.311 36.7275 558.253 36.4298 558.253 36.0797V21.0064H548.374V36.0797C548.374 36.4298 548.307 36.7275 548.173 36.9726C548.059 37.1826 547.896 37.2877 547.685 37.2877H546.221Z" fill="white" fill-opacity="0.3"/>
<path d="M531.371 37.2912C531.18 37.2912 531.017 37.1861 530.883 36.976C530.768 36.7309 530.711 36.4333 530.711 36.0832V32.3017C530.711 31.9516 530.768 31.6715 530.883 31.4614C531.017 31.2163 531.18 31.0938 531.371 31.0938H533.439C533.63 31.0938 533.784 31.2163 533.898 31.4614C534.032 31.6715 534.099 31.9516 534.099 32.3017V36.0832C534.099 36.4333 534.032 36.7309 533.898 36.976C533.784 37.1861 533.63 37.2912 533.439 37.2912H531.371Z" fill="white" fill-opacity="0.3"/>
<path d="M510.696 37.2877C510.543 37.2877 510.409 37.1826 510.294 36.9726C510.18 36.7625 510.122 36.5174 510.122 36.2373C510.122 36.0622 510.132 35.8696 510.151 35.6595L517.273 1.67888C517.349 1.32875 517.455 1.04864 517.589 0.838561C517.723 0.628478 517.924 0.523438 518.192 0.523438H520.145C520.394 0.523438 520.585 0.628478 520.719 0.838561C520.872 1.04864 520.987 1.32875 521.064 1.67888L528.157 35.6595C528.195 35.8696 528.214 36.0622 528.214 36.2373C528.214 36.5174 528.157 36.7625 528.042 36.9726C527.927 37.1826 527.793 37.2877 527.64 37.2877H526.175C525.946 37.2877 525.773 37.1826 525.659 36.9726C525.563 36.7625 525.496 36.5699 525.458 36.3948L523.878 28.9369H514.458L512.879 36.3948C512.86 36.5699 512.793 36.7625 512.678 36.9726C512.563 37.1826 512.391 37.2877 512.161 37.2877H510.696ZM515.291 24.4202H523.045L519.168 5.77547L515.291 24.4202Z" fill="white" fill-opacity="0.3"/>
<path d="M494.338 37.2877C494.127 37.2877 493.964 37.1826 493.849 36.9726C493.734 36.7275 493.677 36.4298 493.677 36.0797V1.78393C493.677 1.39878 493.734 1.10116 493.849 0.891081C493.964 0.645985 494.127 0.523438 494.338 0.523438H495.802C496.013 0.523438 496.175 0.645985 496.29 0.891081C496.424 1.10116 496.491 1.39878 496.491 1.78393V16.2795H499.737L504.848 1.36376C504.944 1.08366 505.069 0.873574 505.222 0.733519C505.375 0.593465 505.576 0.523438 505.825 0.523438H507.376C507.586 0.523438 507.739 0.628478 507.835 0.838561C507.931 1.04864 507.979 1.29374 507.979 1.57385C507.979 1.78393 507.931 2.01151 507.835 2.25661L502.321 18.3278L508.381 35.4495C508.438 35.5895 508.467 35.7821 508.467 36.0272C508.467 36.3773 508.4 36.6749 508.266 36.92C508.151 37.1651 507.998 37.2877 507.806 37.2877H506.169C505.959 37.2877 505.796 37.2177 505.681 37.0776C505.585 36.9025 505.499 36.71 505.423 36.4999L499.851 21.0064H496.491V36.0797C496.491 36.4298 496.424 36.7275 496.29 36.9726C496.175 37.1826 496.013 37.2877 495.802 37.2877H494.338Z" fill="white" fill-opacity="0.3"/>
<path d="M475.154 37.2877C474.944 37.2877 474.781 37.1826 474.666 36.9726C474.551 36.7275 474.494 36.4298 474.494 36.0797V1.78393C474.494 1.39878 474.551 1.10116 474.666 0.891081C474.781 0.645985 474.944 0.523438 475.154 0.523438H483.023C484.459 0.523438 485.627 0.961107 486.527 1.83645C487.446 2.67677 488.116 3.83222 488.537 5.30279C488.977 6.77336 489.198 8.419 489.198 10.2397C489.198 11.6753 489.064 12.9182 488.796 13.9686C488.547 14.984 488.231 15.8244 487.848 16.4896C487.465 17.1199 487.092 17.6101 486.728 17.9602C487.474 18.6255 488.135 19.7109 488.709 21.2165C489.303 22.722 489.6 24.5427 489.6 26.6786C489.6 28.6043 489.36 30.3725 488.882 31.9831C488.403 33.5937 487.685 34.8892 486.728 35.8696C485.79 36.815 484.622 37.2877 483.224 37.2877H475.154ZM477.308 33.0335H482.851C484.095 33.0335 485.053 32.4208 485.723 31.1953C486.393 29.9698 486.728 28.4643 486.728 26.6786C486.728 24.8229 486.393 23.2998 485.723 22.1093C485.053 20.8838 484.095 20.2711 482.851 20.2711H477.308V33.0335ZM477.308 16.0695H482.592C483.818 16.0695 484.746 15.5618 485.378 14.5464C486.01 13.496 486.326 12.0779 486.326 10.2922C486.326 8.50653 486.01 7.141 485.378 6.19564C484.746 5.25027 483.818 4.77759 482.592 4.77759H477.308V16.0695Z" fill="white" fill-opacity="0.3"/>
<path d="M453.905 37.2877C453.752 37.2877 453.618 37.1826 453.503 36.9726C453.389 36.7625 453.331 36.5174 453.331 36.2373C453.331 36.0622 453.341 35.8696 453.36 35.6595L460.482 1.67888C460.558 1.32875 460.664 1.04864 460.798 0.838561C460.932 0.628478 461.133 0.523438 461.401 0.523438H463.354C463.603 0.523438 463.794 0.628478 463.928 0.838561C464.081 1.04864 464.196 1.32875 464.273 1.67888L471.366 35.6595C471.404 35.8696 471.423 36.0622 471.423 36.2373C471.423 36.5174 471.366 36.7625 471.251 36.9726C471.136 37.1826 471.002 37.2877 470.849 37.2877H469.385C469.155 37.2877 468.982 37.1826 468.868 36.9726C468.772 36.7625 468.705 36.5699 468.667 36.3948L467.087 28.9369H457.668L456.088 36.3948C456.069 36.5699 456.002 36.7625 455.887 36.9726C455.772 37.1826 455.6 37.2877 455.37 37.2877H453.905ZM458.5 24.4202H466.254L462.377 5.77547L458.5 24.4202Z" fill="white" fill-opacity="0.3"/>
<path d="M437.574 37.2877C437.363 37.2877 437.201 37.1826 437.086 36.9726C436.971 36.7275 436.914 36.4298 436.914 36.0797V1.78393C436.914 1.39878 436.971 1.10116 437.086 0.891081C437.201 0.645985 437.363 0.523438 437.574 0.523438H450.066C450.277 0.523438 450.44 0.645985 450.555 0.891081C450.67 1.10116 450.727 1.39878 450.727 1.78393V3.88474C450.727 4.23487 450.67 4.53249 450.555 4.77759C450.44 4.98767 450.277 5.09271 450.066 5.09271H439.728V15.7018H445.414C447.444 15.7018 449.023 16.6647 450.153 18.5904C451.282 20.5162 451.847 23.1072 451.847 26.3634C451.847 27.659 451.713 28.9545 451.445 30.25C451.177 31.5455 450.775 32.7184 450.239 33.7688C449.722 34.8192 449.061 35.6771 448.257 36.3423C447.453 36.9726 446.505 37.2877 445.414 37.2877H437.574ZM439.728 33.0335H445.07C445.912 33.0335 446.62 32.7359 447.195 32.1407C447.769 31.5104 448.209 30.6701 448.516 29.6197C448.822 28.5693 448.975 27.4314 448.975 26.2059C448.975 24.3502 448.65 22.8446 447.999 21.6891C447.367 20.4987 446.391 19.9034 445.07 19.9034H439.728V33.0335Z" fill="white" fill-opacity="0.3"/>
<path d="M424.687 37.8146C423.06 37.8146 421.662 37.307 420.494 36.2916C419.326 35.2411 418.426 33.648 417.795 31.5122C417.163 29.3414 416.809 26.6278 416.732 23.3716C416.713 21.831 416.703 20.3604 416.703 18.9598C416.703 17.5243 416.713 16.0362 416.732 14.4956C416.809 11.2744 417.172 8.59583 417.823 6.46C418.493 4.28916 419.412 2.67854 420.58 1.62813C421.767 0.542711 423.136 0 424.687 0C426.257 0 427.626 0.542711 428.794 1.62813C429.981 2.67854 430.909 4.28916 431.579 6.46C432.249 8.59583 432.613 11.2744 432.671 14.4956C432.709 16.0362 432.728 17.5243 432.728 18.9598C432.728 20.3604 432.709 21.831 432.671 23.3716C432.613 26.6278 432.259 29.3414 431.608 31.5122C430.976 33.648 430.076 35.2411 428.909 36.2916C427.741 37.307 426.334 37.8146 424.687 37.8146ZM424.687 33.3504C426.161 33.3504 427.358 32.5451 428.277 30.9345C429.215 29.3239 429.722 26.7153 429.799 23.109C429.837 21.5333 429.856 20.1328 429.856 18.9073C429.856 17.6468 429.837 16.2463 429.799 14.7057C429.761 12.2898 429.512 10.329 429.052 8.82342C428.612 7.31783 428.018 6.21491 427.272 5.51464C426.525 4.81437 425.663 4.46423 424.687 4.46423C423.749 4.46423 422.906 4.81437 422.16 5.51464C421.413 6.21491 420.81 7.31783 420.351 8.82342C419.91 10.329 419.661 12.2898 419.604 14.7057C419.585 16.2463 419.575 17.6468 419.575 18.9073C419.575 20.1328 419.585 21.5333 419.604 23.109C419.68 26.7153 420.188 29.3239 421.126 30.9345C422.064 32.5451 423.251 33.3504 424.687 33.3504Z" fill="white" fill-opacity="0.3"/>
<path d="M395.968 44.588C395.777 44.588 395.614 44.483 395.48 44.2729C395.365 44.0628 395.308 43.7652 395.308 43.38V33.7688C395.308 33.4187 395.365 33.1386 395.48 32.9285C395.614 32.6834 395.777 32.5608 395.968 32.5608H396.571C397.031 32.5608 397.433 32.1757 397.777 31.4054C398.122 30.6351 398.409 29.4621 398.639 27.8865C398.888 26.2759 399.07 24.2451 399.185 21.7942C399.299 19.3432 399.357 16.4371 399.357 13.0758V1.73141C399.357 1.38127 399.414 1.10116 399.529 0.891081C399.663 0.645985 399.826 0.523438 400.017 0.523438H411.217C411.428 0.523438 411.591 0.645985 411.706 0.891081C411.84 1.10116 411.907 1.39878 411.907 1.78393V32.5608H413.314C413.524 32.5608 413.687 32.6834 413.802 32.9285C413.936 33.1386 414.003 33.4187 414.003 33.7688V43.38C414.003 43.7302 413.936 44.0103 413.802 44.2204C413.687 44.4655 413.524 44.588 413.314 44.588H411.849C411.639 44.588 411.476 44.4655 411.361 44.2204C411.246 44.0103 411.189 43.7302 411.189 43.38V37.2877H398.122V43.38C398.122 43.7302 398.055 44.0103 397.921 44.2204C397.806 44.4655 397.643 44.588 397.433 44.588H395.968ZM400.247 32.5608H409.092V5.25027H402.114V13.706C402.114 18.678 401.951 22.687 401.626 25.7332C401.319 28.7794 400.86 31.0553 400.247 32.5608Z" fill="white" fill-opacity="0.3"/>
<path d="M382.98 37.2877C382.788 37.2877 382.625 37.1826 382.491 36.9726C382.357 36.7275 382.29 36.4298 382.29 36.0797V23.3173H377.667C376.346 23.3173 375.207 22.8796 374.249 22.0043C373.311 21.1289 372.584 19.8509 372.067 18.1703C371.569 16.4896 371.32 14.4413 371.32 12.0254C371.32 10.0646 371.55 8.20892 372.009 6.45824C372.488 4.70756 373.206 3.28951 374.163 2.20409C375.14 1.08365 376.374 0.523438 377.868 0.523438H384.444C384.636 0.523438 384.789 0.645985 384.904 0.891081C385.038 1.10116 385.105 1.38127 385.105 1.73141V36.0797C385.105 36.4298 385.038 36.7275 384.904 36.9726C384.789 37.1826 384.636 37.2877 384.444 37.2877H382.98ZM371.521 37.2877C371.368 37.2877 371.234 37.1826 371.119 36.9726C371.004 36.7625 370.947 36.5174 370.947 36.2373C370.947 36.0622 370.976 35.8696 371.033 35.6595L376.145 20.9538L378.902 21.7417L374.02 35.8696C373.905 36.2198 373.771 36.5524 373.618 36.8675C373.464 37.1476 373.225 37.2877 372.9 37.2877H371.521ZM378.098 18.9056H382.29V4.93515H378.098C376.853 4.93515 375.886 5.6004 375.197 6.93092C374.527 8.26144 374.192 9.99461 374.192 12.1304C374.192 14.3713 374.508 16.0695 375.14 17.2249C375.791 18.3453 376.777 18.9056 378.098 18.9056Z" fill="white" fill-opacity="0.3"/>
<path d="M350.559 37.2877C350.406 37.2877 350.272 37.1826 350.157 36.9726C350.043 36.7625 349.985 36.5174 349.985 36.2373C349.985 36.0622 349.995 35.8696 350.014 35.6595L357.136 1.67888C357.213 1.32875 357.318 1.04864 357.452 0.838561C357.586 0.628478 357.787 0.523438 358.055 0.523438H360.008C360.257 0.523438 360.448 0.628478 360.582 0.838561C360.735 1.04864 360.85 1.32875 360.927 1.67888L368.02 35.6595C368.058 35.8696 368.078 36.0622 368.078 36.2373C368.078 36.5174 368.02 36.7625 367.905 36.9726C367.79 37.1826 367.656 37.2877 367.503 37.2877H366.039C365.809 37.2877 365.637 37.1826 365.522 36.9726C365.426 36.7625 365.359 36.5699 365.321 36.3948L363.741 28.9369H354.322L352.742 36.3948C352.723 36.5699 352.656 36.7625 352.541 36.9726C352.426 37.1826 352.254 37.2877 352.024 37.2877H350.559ZM355.154 24.4202H362.908L359.031 5.77547L355.154 24.4202Z" fill="white" fill-opacity="0.3"/>
<path d="M332.097 37.2877C331.886 37.2877 331.723 37.1826 331.608 36.9726C331.493 36.7275 331.436 36.4298 331.436 36.0797V1.78393C331.436 1.39878 331.493 1.10116 331.608 0.891081C331.723 0.645985 331.886 0.523438 332.097 0.523438H333.561C333.772 0.523438 333.934 0.645985 334.049 0.891081C334.183 1.10116 334.25 1.39878 334.25 1.78393V16.2795H344.129V1.78393C344.129 1.39878 344.187 1.10116 344.302 0.891081C344.436 0.645985 344.598 0.523438 344.79 0.523438H346.255C346.465 0.523438 346.628 0.645985 346.743 0.891081C346.877 1.10116 346.944 1.39878 346.944 1.78393V36.0797C346.944 36.4298 346.877 36.7275 346.743 36.9726C346.628 37.1826 346.465 37.2877 346.255 37.2877H344.79C344.598 37.2877 344.436 37.1826 344.302 36.9726C344.187 36.7275 344.129 36.4298 344.129 36.0797V21.0064H334.25V36.0797C334.25 36.4298 334.183 36.7275 334.049 36.9726C333.934 37.1826 333.772 37.2877 333.561 37.2877H332.097Z" fill="white" fill-opacity="0.3"/>
<path d="M312.914 37.2877C312.703 37.2877 312.541 37.1826 312.426 36.9726C312.311 36.7275 312.253 36.4298 312.253 36.0797V1.78393C312.253 1.39878 312.311 1.10116 312.426 0.891081C312.541 0.645985 312.703 0.523438 312.914 0.523438H320.783C322.219 0.523438 323.386 0.961107 324.286 1.83645C325.205 2.67677 325.875 3.83222 326.297 5.30279C326.737 6.77336 326.957 8.419 326.957 10.2397C326.957 11.6753 326.823 12.9182 326.555 13.9686C326.306 14.984 325.99 15.8244 325.607 16.4896C325.224 17.1199 324.851 17.6101 324.487 17.9602C325.234 18.6255 325.895 19.7109 326.469 21.2165C327.062 22.722 327.359 24.5427 327.359 26.6786C327.359 28.6043 327.12 30.3725 326.641 31.9831C326.163 33.5937 325.445 34.8892 324.487 35.8696C323.549 36.815 322.381 37.2877 320.984 37.2877H312.914ZM315.068 33.0335H320.61C321.855 33.0335 322.812 32.4208 323.482 31.1953C324.152 29.9698 324.487 28.4643 324.487 26.6786C324.487 24.8229 324.152 23.2998 323.482 22.1093C322.812 20.8838 321.855 20.2711 320.61 20.2711H315.068V33.0335ZM315.068 16.0695H320.352C321.577 16.0695 322.506 15.5618 323.138 14.5464C323.769 13.496 324.085 12.0779 324.085 10.2922C324.085 8.50653 323.769 7.141 323.138 6.19564C322.506 5.25027 321.577 4.77759 320.352 4.77759H315.068V16.0695Z" fill="white" fill-opacity="0.3"/>
<path d="M291.6 37.2877C291.389 37.2877 291.226 37.1651 291.111 36.92C290.997 36.6749 290.939 36.3773 290.939 36.0272V1.78393C290.939 1.39878 290.997 1.10116 291.111 0.891081C291.246 0.645985 291.408 0.523438 291.6 0.523438H293.093C293.285 0.523438 293.438 0.645985 293.553 0.891081C293.687 1.10116 293.754 1.39878 293.754 1.78393V28.9369L304.465 1.25872C304.523 1.11867 304.599 0.961106 304.695 0.786038C304.81 0.610971 304.973 0.523438 305.183 0.523438H306.591C306.782 0.523438 306.935 0.645985 307.05 0.891081C307.184 1.10116 307.251 1.39878 307.251 1.78393V36.0797C307.251 36.4298 307.184 36.7275 307.05 36.9726C306.935 37.1826 306.782 37.2877 306.591 37.2877H305.126C304.934 37.2877 304.772 37.1826 304.638 36.9726C304.504 36.7275 304.437 36.4298 304.437 36.0797V9.13677L293.754 36.5524C293.715 36.6574 293.639 36.815 293.524 37.0251C293.409 37.2001 293.246 37.2877 293.036 37.2877H291.6Z" fill="white" fill-opacity="0.3"/>
<path d="M279.363 37.2877C279.171 37.2877 279.008 37.1826 278.874 36.9726C278.759 36.7275 278.702 36.4298 278.702 36.0797V5.19775H273.188C272.997 5.19775 272.834 5.09271 272.7 4.88263C272.585 4.63753 272.528 4.33992 272.528 3.98978V1.78393C272.528 1.39878 272.585 1.10116 272.7 0.891081C272.834 0.645985 272.997 0.523438 273.188 0.523438H287.03C287.241 0.523438 287.404 0.645985 287.518 0.891081C287.652 1.10116 287.719 1.39878 287.719 1.78393V3.98978C287.719 4.33992 287.652 4.63753 287.518 4.88263C287.404 5.09271 287.241 5.19775 287.03 5.19775H281.545V36.0797C281.545 36.4298 281.478 36.7275 281.344 36.9726C281.229 37.1826 281.066 37.2877 280.856 37.2877H279.363Z" fill="white" fill-opacity="0.3"/>
<path d="M256.599 37.2877C256.389 37.2877 256.226 37.1826 256.111 36.9726C255.996 36.7275 255.939 36.4298 255.939 36.0797V1.78393C255.939 1.39878 255.996 1.10116 256.111 0.891081C256.226 0.645985 256.389 0.523438 256.599 0.523438H258.064C258.275 0.523438 258.437 0.645985 258.552 0.891081C258.686 1.10116 258.753 1.39878 258.753 1.78393V16.2795H261.998L267.11 1.36376C267.206 1.08366 267.33 0.873574 267.484 0.733519C267.637 0.593465 267.838 0.523438 268.087 0.523438H269.637C269.848 0.523438 270.001 0.628478 270.097 0.838561C270.193 1.04864 270.241 1.29374 270.241 1.57385C270.241 1.78393 270.193 2.01151 270.097 2.25661L264.583 18.3278L270.643 35.4495C270.7 35.5895 270.729 35.7821 270.729 36.0272C270.729 36.3773 270.662 36.6749 270.528 36.92C270.413 37.1651 270.26 37.2877 270.068 37.2877H268.431C268.221 37.2877 268.058 37.2177 267.943 37.0776C267.847 36.9025 267.761 36.71 267.685 36.4999L262.113 21.0064H258.753V36.0797C258.753 36.4298 258.686 36.7275 258.552 36.9726C258.437 37.1826 258.275 37.2877 258.064 37.2877H256.599Z" fill="white" fill-opacity="0.3"/>
<path d="M235.35 37.2877C235.197 37.2877 235.063 37.1826 234.948 36.9726C234.834 36.7625 234.776 36.5174 234.776 36.2373C234.776 36.0622 234.786 35.8696 234.805 35.6595L241.927 1.67888C242.004 1.32875 242.109 1.04864 242.243 0.838561C242.377 0.628478 242.578 0.523438 242.846 0.523438H244.799C245.048 0.523438 245.239 0.628478 245.373 0.838561C245.526 1.04864 245.641 1.32875 245.718 1.67888L252.811 35.6595C252.849 35.8696 252.869 36.0622 252.869 36.2373C252.869 36.5174 252.811 36.7625 252.696 36.9726C252.581 37.1826 252.447 37.2877 252.294 37.2877H250.83C250.6 37.2877 250.428 37.1826 250.313 36.9726C250.217 36.7625 250.15 36.5699 250.112 36.3948L248.532 28.9369H239.113L237.533 36.3948C237.514 36.5699 237.447 36.7625 237.332 36.9726C237.217 37.1826 237.045 37.2877 236.815 37.2877H235.35ZM239.945 24.4202H247.699L243.822 5.77547L239.945 24.4202Z" fill="white" fill-opacity="0.3"/>
<path d="M209.007 37.2877C208.796 37.2877 208.634 37.1651 208.519 36.92C208.404 36.6749 208.346 36.3773 208.346 36.0272V1.78393C208.346 1.39878 208.404 1.10116 208.519 0.891081C208.653 0.645985 208.816 0.523438 209.007 0.523438H210.5C210.692 0.523438 210.845 0.645985 210.96 0.891081C211.094 1.10116 211.161 1.39878 211.161 1.78393V28.9369L221.873 1.25872C221.93 1.11867 222.007 0.961106 222.102 0.786038C222.217 0.610971 222.38 0.523438 222.591 0.523438H223.998C224.189 0.523438 224.342 0.645985 224.457 0.891081C224.591 1.10116 224.658 1.39878 224.658 1.78393V36.0797C224.658 36.4298 224.591 36.7275 224.457 36.9726C224.342 37.1826 224.189 37.2877 223.998 37.2877H222.533C222.342 37.2877 222.179 37.1826 222.045 36.9726C221.911 36.7275 221.844 36.4298 221.844 36.0797V9.13677L211.161 36.5524C211.123 36.6574 211.046 36.815 210.931 37.0251C210.816 37.2001 210.653 37.2877 210.443 37.2877H209.007Z" fill="white" fill-opacity="0.3"/>
<path d="M190.638 37.2877C190.427 37.2877 190.264 37.1826 190.149 36.9726C190.034 36.7275 189.977 36.4298 189.977 36.0797V1.78393C189.977 1.39878 190.034 1.10116 190.149 0.891081C190.264 0.645985 190.427 0.523438 190.638 0.523438H192.102C192.313 0.523438 192.476 0.645985 192.59 0.891081C192.724 1.10116 192.791 1.39878 192.791 1.78393V16.2795H196.037L201.148 1.36376C201.244 1.08366 201.369 0.873574 201.522 0.733519C201.675 0.593465 201.876 0.523438 202.125 0.523438H203.676C203.886 0.523438 204.039 0.628478 204.135 0.838561C204.231 1.04864 204.279 1.29374 204.279 1.57385C204.279 1.78393 204.231 2.01151 204.135 2.25661L198.621 18.3278L204.681 35.4495C204.738 35.5895 204.767 35.7821 204.767 36.0272C204.767 36.3773 204.7 36.6749 204.566 36.92C204.451 37.1651 204.298 37.2877 204.106 37.2877H202.469C202.259 37.2877 202.096 37.2177 201.981 37.0776C201.886 36.9025 201.799 36.71 201.723 36.4999L196.151 21.0064H192.791V36.0797C192.791 36.4298 192.724 36.7275 192.59 36.9726C192.476 37.1826 192.313 37.2877 192.102 37.2877H190.638Z" fill="white" fill-opacity="0.3"/>
<path d="M178.088 37.8146C176.326 37.8146 174.862 37.2194 173.694 36.029C172.545 34.8385 171.674 33.1754 171.08 31.0395C170.487 28.9037 170.161 26.4177 170.104 23.5816C170.085 22.1461 170.075 20.6055 170.075 18.9598C170.075 17.3142 170.085 15.7386 170.104 14.233C170.161 11.3969 170.487 8.91095 171.08 6.77512C171.674 4.6393 172.545 2.97615 173.694 1.78569C174.862 0.59523 176.326 0 178.088 0C179.409 0 180.567 0.332628 181.562 0.997886C182.558 1.66314 183.381 2.55599 184.032 3.67642C184.702 4.79686 185.21 6.05735 185.554 7.45789C185.899 8.82342 186.09 10.2415 186.129 11.712C186.148 12.0272 186.09 12.2898 185.956 12.4998C185.841 12.7099 185.698 12.815 185.526 12.815H183.946C183.774 12.815 183.621 12.7274 183.487 12.5524C183.372 12.3773 183.286 12.0622 183.228 11.607C182.903 8.87594 182.29 7.00271 181.39 5.98732C180.509 4.97193 179.399 4.46423 178.059 4.46423C176.527 4.46423 175.311 5.26954 174.412 6.88016C173.512 8.45578 173.024 10.9943 172.947 14.4956C172.89 17.3667 172.89 20.3079 172.947 23.319C173.024 26.8204 173.512 29.3764 174.412 30.987C175.311 32.5626 176.527 33.3504 178.059 33.3504C179.399 33.3504 180.509 32.8427 181.39 31.8273C182.29 30.8119 182.903 28.9387 183.228 26.2077C183.286 25.7525 183.372 25.4374 183.487 25.2623C183.621 25.0872 183.774 24.9997 183.946 24.9997H185.526C185.698 24.9997 185.841 25.1047 185.956 25.3148C186.09 25.5249 186.148 25.7875 186.129 26.1026C186.09 27.5732 185.899 29.0087 185.554 30.4093C185.21 31.7748 184.702 33.0178 184.032 34.1382C183.381 35.2587 182.558 36.1515 181.562 36.8168C180.567 37.482 179.409 37.8146 178.088 37.8146Z" fill="white" fill-opacity="0.3"/>
<path d="M154.291 37.2877C154.081 37.2877 153.918 37.1826 153.803 36.9726C153.688 36.7275 153.631 36.4298 153.631 36.0797V1.78393C153.631 1.39878 153.688 1.10116 153.803 0.891081C153.918 0.645985 154.081 0.523438 154.291 0.523438H166.152C166.362 0.523438 166.525 0.645985 166.64 0.891081C166.755 1.10116 166.812 1.39878 166.812 1.78393V3.7797C166.812 4.16485 166.755 4.46246 166.64 4.67254C166.525 4.88263 166.362 4.98767 166.152 4.98767H156.388V16.4896H165.52C165.731 16.4896 165.893 16.6122 166.008 16.8573C166.123 17.0673 166.18 17.365 166.18 17.7501V19.6934C166.18 20.0435 166.123 20.3411 166.008 20.5862C165.893 20.7963 165.731 20.9013 165.52 20.9013H156.388V32.8234H166.381C166.592 32.8234 166.755 32.9285 166.87 33.1386C166.985 33.3487 167.042 33.6463 167.042 34.0314V36.0797C167.042 36.4298 166.985 36.7275 166.87 36.9726C166.755 37.1826 166.592 37.2877 166.381 37.2877H154.291Z" fill="white" fill-opacity="0.3"/>
<path d="M146.443 37.2877C146.232 37.2877 146.069 37.1826 145.955 36.9726C145.84 36.7275 145.782 36.4298 145.782 36.0797V22.582C145.495 23.1772 145.064 23.6849 144.49 24.1051C143.916 24.4902 143.293 24.7703 142.623 24.9454C141.972 25.1205 141.341 25.208 140.728 25.208C138.411 25.208 136.698 24.2451 135.587 22.3194C134.496 20.3586 133.95 17.5225 133.95 13.8111V1.73141C133.95 1.38127 134.008 1.10116 134.123 0.891081C134.257 0.645985 134.42 0.523438 134.611 0.523438H136.076C136.286 0.523438 136.449 0.645985 136.564 0.891081C136.698 1.10116 136.765 1.38127 136.765 1.73141V13.496C136.765 15.8419 137.1 17.5926 137.77 18.748C138.44 19.8684 139.589 20.4286 141.216 20.4286C141.656 20.4286 142.135 20.3586 142.652 20.2186C143.169 20.0785 143.667 19.8159 144.145 19.4308C144.624 19.0106 145.016 18.4504 145.323 17.7501C145.629 17.0498 145.782 16.157 145.782 15.0716V1.73141C145.782 1.38127 145.84 1.10116 145.955 0.891081C146.069 0.645985 146.232 0.523438 146.443 0.523438H147.907C148.118 0.523438 148.281 0.645985 148.396 0.891081C148.53 1.10116 148.597 1.38127 148.597 1.73141V36.0797C148.597 36.4298 148.53 36.7275 148.396 36.9726C148.281 37.1826 148.118 37.2877 147.907 37.2877H146.443Z" fill="white" fill-opacity="0.3"/>
<path d="M114.187 37.2877C113.976 37.2877 113.814 37.1651 113.699 36.92C113.584 36.6749 113.526 36.3773 113.526 36.0272V1.78393C113.526 1.39878 113.584 1.10116 113.699 0.891081C113.833 0.645985 113.995 0.523438 114.187 0.523438H115.68C115.872 0.523438 116.025 0.645985 116.14 0.891081C116.274 1.10116 116.341 1.39878 116.341 1.78393V28.9369L127.053 1.25872C127.11 1.11867 127.187 0.961106 127.282 0.786038C127.397 0.610971 127.56 0.523438 127.771 0.523438H129.178C129.369 0.523438 129.522 0.645985 129.637 0.891081C129.771 1.10116 129.838 1.39878 129.838 1.78393V36.0797C129.838 36.4298 129.771 36.7275 129.637 36.9726C129.522 37.1826 129.369 37.2877 129.178 37.2877H127.713C127.522 37.2877 127.359 37.1826 127.225 36.9726C127.091 36.7275 127.024 36.4298 127.024 36.0797V9.13677L116.341 36.5524C116.302 36.6574 116.226 36.815 116.111 37.0251C115.996 37.2001 115.833 37.2877 115.623 37.2877H114.187Z" fill="white" fill-opacity="0.3"/>
<path d="M99.1547 37.2877C98.9441 37.2877 98.7813 37.1826 98.6664 36.9726C98.5516 36.7275 98.4941 36.4298 98.4941 36.0797V1.78393C98.4941 1.39878 98.5516 1.10116 98.6664 0.891081C98.7813 0.645985 98.9441 0.523438 99.1547 0.523438H110.211C110.422 0.523438 110.584 0.645985 110.699 0.891081C110.833 1.10116 110.9 1.39878 110.9 1.78393V3.88474C110.9 4.23487 110.833 4.53249 110.699 4.77759C110.584 4.98767 110.422 5.09271 110.211 5.09271H101.309V36.0797C101.309 36.4298 101.242 36.7275 101.107 36.9726C100.993 37.1826 100.83 37.2877 100.619 37.2877H99.1547Z" fill="white" fill-opacity="0.3"/>
<path d="M86.2676 37.8146C84.6402 37.8146 83.2426 37.307 82.0747 36.2916C80.9069 35.2411 80.007 33.648 79.3752 31.5122C78.7434 29.3414 78.3892 26.6278 78.3127 23.3716C78.2935 21.831 78.2839 20.3604 78.2839 18.9598C78.2839 17.5243 78.2935 16.0362 78.3127 14.4956C78.3892 11.2744 78.753 8.59583 79.4039 6.46C80.074 4.28916 80.993 2.67854 82.1609 1.62813C83.3479 0.542711 84.7168 0 86.2676 0C87.8375 0 89.2064 0.542711 90.3743 1.62813C91.5613 2.67854 92.4898 4.28916 93.1599 6.46C93.83 8.59583 94.1938 11.2744 94.2512 14.4956C94.2895 16.0362 94.3086 17.5243 94.3086 18.9598C94.3086 20.3604 94.2895 21.831 94.2512 23.3716C94.1938 26.6278 93.8396 29.3414 93.1886 31.5122C92.5568 33.648 91.657 35.2411 90.4891 36.2916C89.3213 37.307 87.9141 37.8146 86.2676 37.8146ZM86.2676 33.3504C87.7418 33.3504 88.9384 32.5451 89.8573 30.9345C90.7955 29.3239 91.3028 26.7153 91.3794 23.109C91.4177 21.5333 91.4368 20.1328 91.4368 18.9073C91.4368 17.6468 91.4177 16.2463 91.3794 14.7057C91.3411 12.2898 91.0922 10.329 90.6327 8.82342C90.1924 7.31783 89.5989 6.21491 88.8522 5.51464C88.1055 4.81437 87.244 4.46423 86.2676 4.46423C85.3294 4.46423 84.4871 4.81437 83.7404 5.51464C82.9937 6.21491 82.3906 7.31783 81.9311 8.82342C81.4908 10.329 81.2419 12.2898 81.1845 14.7057C81.1653 16.2463 81.1557 17.6468 81.1557 18.9073C81.1557 20.1328 81.1653 21.5333 81.1845 23.109C81.261 26.7153 81.7684 29.3239 82.7065 30.9345C83.6447 32.5451 84.8317 33.3504 86.2676 33.3504Z" fill="white" fill-opacity="0.3"/>
<path d="M71.9058 37.2877C71.7144 37.2877 71.5516 37.1826 71.4176 36.9726C71.3027 36.7275 71.2453 36.4298 71.2453 36.0797V5.25027H64.1232V13.706C64.1232 17.9077 63.9988 21.4966 63.7499 24.4727C63.501 27.4139 63.1181 29.8123 62.6012 31.668C62.0842 33.4887 61.4141 34.8542 60.5909 35.7646C59.7868 36.6399 58.8104 37.1301 57.6616 37.2352C57.4702 37.2702 57.3075 37.1651 57.1734 36.92C57.0394 36.6749 56.9724 36.3598 56.9724 35.9747V33.6638C56.9724 32.9635 57.1734 32.5608 57.5755 32.4558C58.169 32.2807 58.6955 31.8081 59.155 31.0378C59.6336 30.2675 60.0357 29.1295 60.3611 27.6239C60.6866 26.0833 60.9355 24.1226 61.1078 21.7417C61.2801 19.3257 61.3663 16.4371 61.3663 13.0758V1.73141C61.3663 1.38127 61.4237 1.10116 61.5386 0.891081C61.6726 0.645985 61.8353 0.523438 62.0268 0.523438H73.3705C73.5811 0.523438 73.7438 0.645985 73.8587 0.891081C73.9927 1.10116 74.0597 1.39878 74.0597 1.78393V36.0797C74.0597 36.4298 73.9927 36.7275 73.8587 36.9726C73.7438 37.1826 73.5811 37.2877 73.3705 37.2877H71.9058Z" fill="white" fill-opacity="0.3"/>
<path d="M46.8643 37.8146C45.2369 37.8146 43.8393 37.307 42.6714 36.2916C41.5035 35.2411 40.6037 33.648 39.9719 31.5122C39.3401 29.3414 38.9859 26.6278 38.9093 23.3716C38.8902 21.831 38.8806 20.3604 38.8806 18.9598C38.8806 17.5243 38.8902 16.0362 38.9093 14.4956C38.9859 11.2744 39.3497 8.59583 40.0006 6.46C40.6707 4.28916 41.5897 2.67854 42.7576 1.62813C43.9446 0.542711 45.3135 0 46.8643 0C48.4342 0 49.8031 0.542711 50.9709 1.62813C52.158 2.67854 53.0865 4.28916 53.7566 6.46C54.4267 8.59583 54.7904 11.2744 54.8479 14.4956C54.8862 16.0362 54.9053 17.5243 54.9053 18.9598C54.9053 20.3604 54.8862 21.831 54.8479 23.3716C54.7904 26.6278 54.4363 29.3414 53.7853 31.5122C53.1535 33.648 52.2537 35.2411 51.0858 36.2916C49.9179 37.307 48.5108 37.8146 46.8643 37.8146ZM46.8643 33.3504C48.3384 33.3504 49.535 32.5451 50.454 30.9345C51.3921 29.3239 51.8995 26.7153 51.9761 23.109C52.0144 21.5333 52.0335 20.1328 52.0335 18.9073C52.0335 17.6468 52.0144 16.2463 51.9761 14.7057C51.9378 12.2898 51.6889 10.329 51.2294 8.82342C50.7891 7.31783 50.1956 6.21491 49.4489 5.51464C48.7022 4.81437 47.8407 4.46423 46.8643 4.46423C45.9261 4.46423 45.0837 4.81437 44.3371 5.51464C43.5904 6.21491 42.9873 7.31783 42.5278 8.82342C42.0875 10.329 41.8386 12.2898 41.7811 14.7057C41.762 16.2463 41.7524 17.6468 41.7524 18.9073C41.7524 20.1328 41.762 21.5333 41.7811 23.109C41.8577 26.7153 42.3651 29.3239 43.3032 30.9345C44.2413 32.5451 45.4283 33.3504 46.8643 33.3504Z" fill="white" fill-opacity="0.3"/>
<path d="M19.0021 37.2877C18.7915 37.2877 18.6287 37.1651 18.5139 36.92C18.399 36.6749 18.3416 36.3773 18.3416 36.0272V1.78393C18.3416 1.39878 18.399 1.10116 18.5139 0.891081C18.6479 0.645985 18.8106 0.523438 19.0021 0.523438H20.4954C20.6869 0.523438 20.84 0.645985 20.9549 0.891081C21.0889 1.10116 21.1559 1.39878 21.1559 1.78393V28.9369L31.8678 1.25872C31.9252 1.11867 32.0018 0.961106 32.0975 0.786038C32.2124 0.610971 32.3751 0.523438 32.5857 0.523438H33.9929C34.1844 0.523438 34.3375 0.645985 34.4524 0.891081C34.5864 1.10116 34.6534 1.39878 34.6534 1.78393V36.0797C34.6534 36.4298 34.5864 36.7275 34.4524 36.9726C34.3375 37.1826 34.1844 37.2877 33.9929 37.2877H32.5283C32.3368 37.2877 32.1741 37.1826 32.0401 36.9726C31.9061 36.7275 31.8391 36.4298 31.8391 36.0797V9.13677L21.1559 36.5524C21.1176 36.6574 21.0411 36.815 20.9262 37.0251C20.8113 37.2001 20.6486 37.2877 20.438 37.2877H19.0021Z" fill="white" fill-opacity="0.3"/>
<path d="M0.660517 37.2877C0.449917 37.2877 0.287181 37.1826 0.172308 36.9726C0.0574361 36.7275 0 36.4298 0 36.0797V1.78393C0 1.39878 0.0574361 1.10116 0.172308 0.891081C0.287181 0.645985 0.449917 0.523438 0.660517 0.523438H13.1529C13.3635 0.523438 13.5262 0.645985 13.6411 0.891081C13.756 1.10116 13.8134 1.39878 13.8134 1.78393V3.88474C13.8134 4.23487 13.756 4.53249 13.6411 4.77759C13.5262 4.98767 13.3635 5.09271 13.1529 5.09271H2.81437V15.7018H8.50056C10.53 15.7018 12.1095 16.6647 13.239 18.5904C14.3686 20.5162 14.9334 23.1072 14.9334 26.3634C14.9334 27.659 14.7994 28.9545 14.5314 30.25C14.2633 31.5455 13.8613 32.7184 13.3252 33.7688C12.8083 34.8192 12.1478 35.6771 11.3437 36.3423C10.5395 36.9726 9.59185 37.2877 8.50056 37.2877H0.660517ZM2.81437 33.0335H8.15594C8.99834 33.0335 9.70672 32.7359 10.2811 32.1407C10.8554 31.5104 11.2958 30.6701 11.6021 29.6197C11.9084 28.5693 12.0616 27.4314 12.0616 26.2059C12.0616 24.3502 11.7361 22.8446 11.0852 21.6891C10.4534 20.4987 9.47698 19.9034 8.15594 19.9034H2.81437V33.0335Z" fill="white" fill-opacity="0.3"/>
</g>
</svg>
